<svg version="1.1" xmlns="http://www.w3.org/2000/svg" xmlns:xlink="http://www.w3.org/1999/xlink" width="60" height="91.5" viewBox="0,0,60,91.5"><g transform="translate(-288.94758,-156.77178)"><g data-paper-data="{&quot;isPaintingLayer&quot;:true}" fill-rule="nonzero" stroke-linejoin="miter" stroke-miterlimit="10" stroke-dasharray="" stroke-dashoffset="0" style="mix-blend-mode: normal"><path d="M338.19758,216.77178c0,12.56448 -7.94695,22.75 -17.75,22.75c-9.80305,0 -17.75,-10.18552 -17.75,-22.75c0,-12.56448 7.94695,-22.75 17.75,-22.75c9.80305,0 17.75,10.18552 17.75,22.75z" fill="#dedede" stroke="#8e8e8e" stroke-width="4.5" stroke-linecap="butt"/><path d="M299.19758,199.02178v-40h44v40z" fill="#dedede" stroke="#8e8e8e" stroke-width="4.5" stroke-linecap="butt"/><path d="M346.69758,213.02178c0,3.03757 -2.91015,5.5 -6.5,5.5c-3.58985,0 -6.5,-2.46243 -6.5,-5.5c0,-3.03757 2.91015,-5.5 6.5,-5.5c3.58985,0 6.5,2.46243 6.5,5.5z" fill="#dedede" stroke="#8e8e8e" stroke-width="4.5" stroke-linecap="butt"/><path d="M297.44758,207.52178c3.45178,0 6.25,2.23858 6.25,5c0,2.76142 -2.79822,5 -6.25,5c-3.45178,0 -6.25,-2.23858 -6.25,-5c0,-2.76142 2.79822,-5 6.25,-5z" fill="#dedede" stroke="#8e8e8e" stroke-width="4.5" stroke-linecap="butt"/><path d="M320.78311,208.12496c-9.3416,0 -16.91447,-10.20863 -16.91447,-22.80159c0,-12.59298 7.57287,-22.80159 16.91447,-22.80159c9.3416,0 16.91447,10.20863 16.91447,22.80159c0,12.59298 -7.57287,22.80159 -16.91447,22.80159z" fill="#dedede" stroke="#8e8e8e" stroke-width="0" stroke-linecap="butt"/><path d="M337.69758,241.27178c0,2.34721 -2.46243,4.25 -5.5,4.25c-3.03757,0 -5.5,-1.90279 -5.5,-4.25c0,-2.34721 2.46243,-4.25 5.5,-4.25c3.03757,0 5.5,1.90279 5.5,4.25z" fill="#dedede" stroke="#8e8e8e" stroke-width="4.5" stroke-linecap="butt"/><path d="M308.19758,238.02178c3.31371,0 6,1.79086 6,4c0,2.20914 -2.68629,4 -6,4c-3.31371,0 -6,-1.79086 -6,-4c0,-2.20914 2.68629,-4 6,-4z" fill="#dedede" stroke="#8e8e8e" stroke-width="4.5" stroke-linecap="butt"/><path d="M312.7819,175.90176l-0.29767,7.14406" fill="none" stroke="#7700ff" stroke-width="6.5" stroke-linecap="round"/><path d="M327.50701,174.75562l0.3513,9.22586" fill="none" stroke="#7700ff" stroke-width="6.5" stroke-linecap="round"/></g></g></svg>