<svg version="1.1" xmlns="http://www.w3.org/2000/svg" xmlns:xlink="http://www.w3.org/1999/xlink" width="63.85249" height="100.27557" viewBox="0,0,63.85249,100.27557"><defs><linearGradient x1="321.7625" y1="150.42904" x2="321.7625" y2="198.84033" gradientUnits="userSpaceOnUse" id="color-1"><stop offset="0" stop-color="#8e8e8e"/><stop offset="1" stop-color="#8f6363"/></linearGradient></defs><g transform="translate(-288.85556,-145.79848)"><g data-paper-data="{&quot;isPaintingLayer&quot;:true}" fill-rule="nonzero" stroke-linejoin="miter" stroke-miterlimit="10" stroke-dasharray="" stroke-dashoffset="0" style="mix-blend-mode: normal"><path d="M323.45998,231.1909c-7.64712,0 -19.71495,4.11027 -24.30456,0.16496c-1.14151,-0.98126 -2.02226,-0.03864 -2.02226,-2.60258c0,-6.38448 5.65049,-15.81787 9.90881,-23.92221c4.32751,-8.23602 7.30182,-15.09241 12.11483,-15.09241c0.36884,0 1.59562,-2.99665 1.95872,-2.96597c4.78886,0.40459 5.38392,9.62051 8.72869,15.58684c2.96743,5.29323 15.63942,20.36078 15.63942,26.1786c0,0 0.83626,3.04693 -2.71909,3.58759c-4.9363,0.75066 -15.14466,-0.93481 -19.30455,-0.93481z" fill="#dedede" stroke="#8e8e8e" stroke-width="0" stroke-linecap="butt"/><path d="M347.15613,232.25669l-54.21249,-0.89774l30.74762,-47.60866z" fill="none" stroke="#8e8e8e" stroke-width="4.5" stroke-linecap="round"/><path d="M348.17097,209.23308c0,1.07556 0.68755,3.50089 0.05684,4.82572c-1.15053,2.41672 -4.23811,3.62105 -6.55684,3.62105c-3.58985,0 -6.5,-5.4092 -6.5,-8.44677c0,-3.03757 2.91015,-5.5 6.5,-5.5c3.58985,0 6.5,2.46243 6.5,5.5z" fill="#dedede" stroke="#8e8e8e" stroke-width="4.5" stroke-linecap="butt"/><path d="M298.07903,203.73308c3.45178,0 6.25,2.23858 6.25,5c0,2.33595 -0.52898,6.61309 -3.23549,7.16217c-0.49296,0.10001 -2.48267,-0.26782 -3.01451,-0.26782c-1.81761,0 -3.77475,1.33886 -4.95724,0.27871c-0.92378,-0.82821 -1.29276,-5.75311 -1.29276,-7.17306c0,-2.76142 2.79822,-5 6.25,-5z" fill="#dedede" stroke="#8e8e8e" stroke-width="4.5" stroke-linecap="butt"/><path d="M324.15086,197.17981c-7.48097,0 -19.28659,4.02096 -23.77647,0.16137c-1.11671,-0.95994 -1.97832,-0.0378 -1.97832,-2.54603c0,-6.24576 5.52772,-15.47417 9.69351,-23.40243c4.23348,-8.05706 7.14317,-14.76449 11.8516,-14.76449c0.36082,0 1.56095,-2.93154 1.91616,-2.90153c4.6848,0.3958 5.26693,9.41147 8.53903,15.24817c2.90295,5.17822 15.29961,19.91839 15.29961,25.6098c0,0 0.81809,2.98073 -2.66001,3.50964c-4.82905,0.73434 -14.8156,-0.9145 -18.88511,-0.9145z" fill="#dedede" stroke="#8e8e8e" stroke-width="0" stroke-linecap="butt"/><path d="M339.17097,237.48308c0,0.9069 -2.26196,5.53617 -2.88831,6.22626c-0.99475,1.09598 -0.74776,-1.97626 -2.61169,-1.97626c-1.2956,0 -2.0656,1.96916 -3.00549,1.39c-1.26371,-0.7787 -2.49451,-4.29393 -2.49451,-5.64c0,-2.34721 2.46243,-4.25 5.5,-4.25c3.03757,0 5.5,1.90279 5.5,4.25z" fill="#dedede" stroke="#8e8e8e" stroke-width="4.5" stroke-linecap="butt"/><path d="M309.67097,234.44356c3.31371,0 6,1.79086 6,4c0,0.55151 -0.09748,1.19933 -0.30073,1.85158c-0.50195,1.61082 -1.64898,3.24858 -3.5658,3.52891c-0.41599,0.06084 -1.69008,-1.38049 -2.13347,-1.38049c-0.83429,0 -1.41833,0.9389 -2.14022,0.73377c-2.14538,-0.60963 -3.85978,-3.08082 -3.85978,-4.73377c0,-2.20914 2.68629,-4 6,-4z" fill="#dedede" stroke="#8e8e8e" stroke-width="4.5" stroke-linecap="butt"/><path d="M294.82057,198.84033l24.41613,-48.41129l29.46774,48.41129z" fill="none" stroke="url(#color-1)" stroke-width="4.5" stroke-linecap="round"/><path d="M315.65847,187.05322l-3.78871,-6.73548" fill="none" stroke="none" stroke-width="0.5" stroke-linecap="round"/><path d="M312.56793,185.89227l0.07704,-7.14985" fill="none" stroke="#7700ff" stroke-width="6.5" stroke-linecap="round"/><path d="M327.30524,177.60918l0.70161,9.20585" fill="none" stroke="#7700ff" stroke-width="6.5" stroke-linecap="round"/></g></g></svg>