<svg version="1.1" xmlns="http://www.w3.org/2000/svg" xmlns:xlink="http://www.w3.org/1999/xlink" width="496.90943" height="266" viewBox="0,0,496.90943,266"><g transform="translate(-82.59057,-46)"><g data-paper-data="{&quot;isPaintingLayer&quot;:true}" fill-rule="nonzero" stroke-linejoin="miter" stroke-miterlimit="10" stroke-dasharray="" stroke-dashoffset="0" style="mix-blend-mode: normal"><path d="M338.5,312v-266h241v266z" fill="#000000" stroke="none" stroke-width="0" stroke-linecap="butt"/><path d="M109.5,312v-100h470v100z" fill="#000000" stroke="none" stroke-width="0" stroke-linecap="butt"/><text transform="translate(343.5,89) scale(0.5,0.5)" font-size="40" xml:space="preserve" fill="#ffffff" fill-rule="nonzero" stroke="none" stroke-width="1" stroke-linecap="butt" stroke-linejoin="miter" stroke-miterlimit="10" stroke-dasharray="" stroke-dashoffset="0" font-family="Pixel" font-weight="normal" text-anchor="start" style="mix-blend-mode: normal"><tspan x="0" dy="0">Womp womp game over.</tspan></text><text transform="translate(348.5,157.0617) scale(0.444,0.444)" font-size="40" xml:space="preserve" fill="#ffffff" fill-rule="nonzero" stroke="none" stroke-width="1" stroke-linecap="butt" stroke-linejoin="miter" stroke-miterlimit="10" stroke-dasharray="" stroke-dashoffset="0" font-family="Pixel" font-weight="normal" text-anchor="start" style="mix-blend-mode: normal"><tspan x="0" dy="0">Anyway you can always</tspan><tspan x="0" dy="46.15px">get a second try at life.</tspan></text><path d="M109.73183,88.7264l70.61895,94.70989l84.66981,-33.34702l34.47941,59.91073" data-paper-data="{&quot;index&quot;:null}" fill="none" stroke="#ffffff" stroke-width="16.5" stroke-linecap="round"/><path d="M92.33411,112.77467l5.44514,-46.20985l47.39226,27.54948z" data-paper-data="{&quot;index&quot;:null}" fill="none" stroke="#ffffff" stroke-width="16.5" stroke-linecap="round"/><path d="M225.556,225.416v46.872c0,0.93 -0.372,1.86 -1.116,2.232c-5.952,5.208 -13.392,7.812 -21.018,7.812c-7.626,0 -15.066,-2.79 -21.018,-7.812c-4.836,-4.092 -10.788,-6.51 -17.112,-6.51c-5.766,0 -11.346,1.86 -15.996,5.58v31.062c0,1.86 -1.488,3.348 -3.348,3.348c-1.86,0 -3.348,-1.488 -3.348,-3.348v-79.236c0,-1.488 0.93,-2.418 1.86,-2.976c5.952,-4.836 13.02,-7.44 20.46,-7.44c7.626,0 15.252,2.79 21.204,7.812c4.836,4.092 10.788,6.324 17.112,6.324c6.324,0 12.276,-2.232 17.112,-6.324c1.116,-0.744 2.418,-0.93 3.534,-0.372c1.116,0.558 1.674,1.674 1.674,2.976z" fill="#549a10" stroke="none" stroke-width="1" stroke-linecap="butt"/><text transform="translate(242.5,259.0617) scale(0.444,0.444)" font-size="40" xml:space="preserve" fill="#ffffff" fill-rule="nonzero" stroke="none" stroke-width="1" stroke-linecap="butt" stroke-linejoin="miter" stroke-miterlimit="10" stroke-dasharray="" stroke-dashoffset="0" font-family="Pixel" font-weight="normal" text-anchor="start" style="mix-blend-mode: normal"><tspan x="0" dy="0">Press the green flag at the top.</tspan></text></g></g></svg>