<svg version="1.1" xmlns="http://www.w3.org/2000/svg" xmlns:xlink="http://www.w3.org/1999/xlink" width="63.60699" height="62.92145" viewBox="0,0,63.60699,62.92145"><g transform="translate(-288.19651,-148.53929)"><g data-paper-data="{&quot;isPaintingLayer&quot;:true}" fill-rule="nonzero" stroke-linecap="butt" stroke-miterlimit="10" stroke-dasharray="" stroke-dashoffset="0" style="mix-blend-mode: normal"><path d="M319.99995,160.2442c2.48923,-5.66019 7.86158,-9.59422 14.10352,-9.59422c8.60532,0 15.58933,7.45485 15.58933,16.6403c0,18.09007 -18.31589,23.69951 -29.69285,42.05976c-12.03356,-18.47392 -29.69275,-23.37328 -29.69275,-42.05976c0,-9.18545 6.98401,-16.6403 15.58933,-16.6403c6.24199,0 11.61433,3.93404 14.10342,9.59422z" fill="#ff0000" stroke="#ff99e5" stroke-width="4.22139" stroke-linejoin="round"/><path d="M331.14791,191.42083c-0.67082,0.33541 -1.00623,-0.33541 -1.00623,-0.33541l-0.14354,-0.28997c-0.98237,-2.30727 -1.04983,-4.78958 -1.98406,-7.07757c-4.32747,3.2225 -9.15143,6.02424 -13.74116,8.32795c0,0 -0.67082,0.33541 -1.00623,-0.33541c-0.33541,-0.67082 0.33541,-1.00623 0.33541,-1.00623c1.85244,-0.92231 3.42325,-2.28898 5.19839,-3.34661c2.91375,-1.73601 5.74702,-3.33015 8.43041,-5.16096c-1.2539,-2.05801 -2.81662,-4.00468 -4.20177,-6.03148c-4.41471,3.21415 -8.9122,6.26497 -13.88119,8.75569c0,0 -0.67082,0.33541 -1.00623,-0.33541c-0.33541,-0.67082 0.33541,-1.00623 0.33541,-1.00623c4.92139,-2.45414 9.36697,-5.48002 13.73103,-8.66541c-0.97822,-1.56471 -1.79791,-3.19767 -2.24822,-4.98187c0,0 -0.1819,-0.72761 0.5457,-0.90951c0.7276,-0.1819 0.9095,0.5457 0.9095,0.5457c0.39287,1.58815 1.1111,3.06051 1.97987,4.47449c2.20063,-1.62346 4.38958,-3.27812 6.61779,-4.91072c0.42771,-0.27489 0.96962,-0.59685 1.56701,-0.95631c-1.29052,-1.60566 -2.46002,-3.30407 -3.10377,-5.18839c0,0 -0.23717,-0.71151 0.47434,-0.94868c0.71151,-0.23717 0.94868,0.47434 0.94868,0.47434c0.5688,1.76265 1.69819,3.37223 2.94299,4.88985c2.05802,-1.293 4.27879,-2.90158 4.759,-4.51485l-0.03849,0.11217c0,0 0,-0.75 0.75,-0.75c0.75,0 0.75,0.75 0.75,0.75l-0.03849,0.36217c-0.71067,1.99264 -3.01853,3.74014 -5.22755,5.1696c0.72203,0.83561 1.44516,1.64665 2.08848,2.44423c0.18946,0.23488 0.37729,0.47266 0.56351,0.71303c0.58618,-1.32663 1.07659,-2.71979 1.51792,-4.27007l0.63573,-0.58978c0,0 0.67082,-0.33541 1.00623,0.33541c0.28197,0.56394 -0.1472,0.89084 -0.29111,0.98069c-0.52349,1.77364 -1.12246,3.37031 -1.85317,4.90085c1.76909,2.44379 3.38294,5.08693 4.84376,7.65728l0.46535,0.57807c0,0 0.46852,0.58565 -0.11713,1.05417c-0.58565,0.46852 -1.05417,-0.11713 -1.05417,-0.11713l-0.53465,-0.67193c-1.34265,-2.33818 -2.79173,-4.74122 -4.3751,-6.99654c-0.70977,1.29077 -1.53106,2.55975 -2.49981,3.87773c-1.51716,1.5214 -3.18711,2.97603 -4.95625,4.35823c1.04455,2.40691 1.09302,4.99172 2.14081,7.41855l0.10646,0.21003c0,0 0.33541,0.67082 -0.33541,1.00623zM333.05402,177.45091c1.06637,-1.45584 1.93457,-2.83018 2.66603,-4.24222c-0.32852,-0.43855 -0.66267,-0.86943 -1.00266,-1.29094c-0.68736,-0.85218 -1.43926,-1.70998 -2.18392,-2.58992c-0.60595,0.37483 -1.17648,0.72219 -1.67123,1.04033c-2.23762,1.64244 -4.43804,3.30294 -6.65059,4.93116c1.38962,2.0391 2.99228,3.98878 4.24904,6.03253c1.59505,-1.15761 3.13128,-2.42329 4.59332,-3.88093z" fill="#c76767" stroke="none" stroke-width="0.5" stroke-linejoin="miter"/><path d="M325.03958,173.09343c-1.20895,6.18023 -2.58866,11.30258 -8.13135,14.91872c-0.6697,0.43692 -3.15095,2.86753 -3.84688,2.69638c-0.17118,-0.0421 -0.10682,-0.00635 0.06606,0.07102c2.98532,0.13264 5.93045,0.69547 8.86441,1.35574c2.05754,-0.10234 4.09801,-0.07325 6.0984,0.25542c3.27146,0.81627 6.74813,0.98939 9.95716,1.89701l0.02441,0.02083l0.00405,-0.01081l0.98361,0.36885c0.29289,0.10209 0.50305,0.3807 0.50305,0.70839c0,0.41421 -0.33579,0.75 -0.75,0.75c-0.04044,0 -0.08013,-0.0032 -0.11884,-0.00936l-0.86223,-0.12318l0.0186,-0.13019c-1.51133,0.1505 -3.0108,0.00841 -4.52118,-0.17345c-0.22012,0.18618 -0.51635,0.18618 -0.51635,0.18618l-0.36697,-0.00918c-0.29779,-0.04702 -0.59557,-0.09404 -0.89336,-0.14106c-0.81479,-0.12866 -1.62578,-0.27841 -2.43417,-0.44232c-4.05115,-0.12219 -9.55891,0.62839 -13.31874,-1.11944c-4.12391,0.4606 -8.24935,0.85455 -12.23677,-0.13883v0.10082l-1,0c-0.41421,0 -0.75,-0.33579 -0.75,-0.75c0,-0.33738 0.22277,-0.62273 0.52924,-0.71698l0.69644,-0.23215c0.04451,-0.02178 0.08853,-0.04288 0.13206,-0.06338c0.07018,-0.11608 0.17095,-0.21159 0.29113,-0.27538l1.1119,-0.61772l0.00554,0.00997l0.02395,-0.0255c1.40719,-0.62583 2.75571,-1.34514 4.09492,-2.10657c1.55959,-0.88603 2.96223,-1.91282 4.2454,-3.04659c0.11983,-0.12381 0.23755,-0.24711 0.3531,-0.36943c4.17955,-4.4246 7.0727,-9.60395 9.30049,-15.15503c0.77709,-3.40627 2.48467,-6.69102 3.80427,-9.92772c0.24658,-0.60481 0.51112,-1.23648 0.53486,-1.8879c0.00121,-0.11312 0.00177,-0.22504 0.00171,-0.33561c-0.00011,-0.19831 0.0183,-0.44418 0.03662,-0.71357c-0.01606,-0.00986 -0.0346,-0.01775 -0.05592,-0.02344c-2.80207,-0.74851 -6.87109,0.52881 -9.80839,0.46695c-3.67987,1.93473 -6.96435,4.62598 -9.90105,7.5593c-0.98211,0.98098 -2.09436,1.73741 -2.99475,2.72963c-0.01268,0.0726 -0.02443,0.14598 -0.03524,0.22017c0,0 -0.09066,0.5893 -0.63574,0.63621c-0.03318,0.05011 -0.06579,0.1009 -0.09779,0.15241c0,0 -0.40266,0.63275 -1.0354,0.23009c-0.63275,-0.40266 -0.23009,-1.0354 -0.23009,-1.0354c0.20753,-0.31984 0.43015,-0.6397 0.66644,-0.95888c0.66972,-2.76417 2.4283,-4.52367 4.53343,-6.47576c4.31143,-3.998 8.75155,-7.08041 14.05847,-9.64237c3.10193,-1.48647 6.38359,-1.46761 9.72286,-1.01385c1.42416,0.19352 3.38019,0.17904 3.97996,1.8583c0.57773,1.61756 -0.33698,3.5364 -1.05388,4.90357c-1.60049,3.05221 -3.00158,6.23696 -5.07453,9.00664c-1.36733,1.81962 -2.61634,3.73724 -3.83306,5.67975c-0.03994,0.30221 -0.08353,0.60012 -0.13986,0.88868zM315.85441,192.50155c0.07751,0.05034 0.15436,0.09641 0.23066,0.13863c0.21183,-0.02049 0.42371,-0.04128 0.63562,-0.06219c-0.21554,-0.03358 -0.43133,-0.06566 -0.64738,-0.0961c-0.10074,-0.01419 -0.20131,-0.02743 -0.3017,-0.03975c0.02756,0.01985 0.05516,0.03966 0.0828,0.0594zM313.61304,158.6072c-0.07253,-0.08631 -0.12596,-0.18921 -0.15379,-0.30218c-1.03596,0.76422 -2.04948,1.56948 -3.05031,2.42103c1.05967,-0.76548 2.1393,-1.47755 3.2041,-2.11886zM323.5625,153.625c0.89751,0 2.49194,-0.22641 3.33541,0.20418c0.55869,0.28521 0.9205,0.68112 1.15335,1.1413c1.27013,0.73273 2.51077,3.67303 2.69544,5.79636c0.67757,-1.31327 1.32271,-2.64566 2.01347,-3.94808c0.55719,-1.05056 1.27602,-2.41671 0.97391,-3.68355c-0.20137,-0.84443 -2.27269,-0.8246 -2.77004,-0.8917c-3.03655,-0.40967 -6.05474,-0.49476 -8.87383,0.87766c-0.4631,0.22357 -0.9193,0.45112 -1.36915,0.68296c0.97003,-0.12795 1.93658,-0.17751 2.84143,-0.17912zM323.03282,155.12978c-2.14811,0.04333 -4.85447,0.39399 -6.65438,1.67651c1.06854,-0.25682 2.36335,-0.26175 3.29055,-0.5168c0.94829,-0.26085 2.13222,-0.75851 3.36384,-1.15972zM326.25814,165.00387c-0.23868,0.54875 -0.47506,1.09908 -0.70264,1.65185c0.06444,-0.08682 0.1287,-0.17379 0.19275,-0.26088c0.19396,-0.3931 0.36074,-0.80138 0.47232,-1.24013c0.01271,-0.04997 0.02523,-0.10025 0.03757,-0.15085zM313.47141,187.90172c-0.89769,0.9105 -2.10274,1.99984 -3.39908,2.83699c0.53427,-0.00252 1.04256,0.00728 1.49326,0.01038c0.06586,-0.59664 1.7202,-1.95759 2.01841,-2.20136c1.53796,-1.2572 3.38813,-2.10649 4.86784,-3.42458c2.78557,-2.48131 3.81573,-5.91443 4.54226,-9.3922c-2.60904,4.19919 -5.30926,8.30889 -8.9649,11.59428c-0.18376,0.19353 -0.36968,0.3857 -0.55779,0.5765zM309.21175,192.96906c1.46694,0.05297 2.94986,-0.00709 4.44005,-0.11666c-0.25678,-0.17179 -0.52103,-0.35499 -0.77156,-0.54224c-1.78289,0.03869 -3.5315,0.26452 -5.28849,0.45436c0.64479,0.09746 1.22433,0.19026 1.62001,0.20454zM326.98328,156.51881c-0.01436,-0.13159 -0.03529,-0.25984 -0.06466,-0.3823c-0.89472,-0.22309 -2.02907,0.05321 -3.00643,0.37872c0.34095,-0.00972 0.68263,-0.01523 1.02531,-0.01523c0.17209,0 1.27931,-0.01693 2.04578,0.01881zM328.53256,158.18212c0.02438,0.40009 -0.02374,0.82697 -0.10907,1.24416c-0.04701,1.35142 -0.21144,2.60934 -0.4799,3.82479c0.44131,-0.49398 1.05432,-0.88292 1.28619,-1.49933c0.22219,-0.59068 -0.16173,-2.23306 -0.69722,-3.56962z" fill="#ffffff" stroke="none" stroke-width="0.5" stroke-linejoin="miter"/></g></g></svg>