<svg version="1.1" xmlns="http://www.w3.org/2000/svg" xmlns:xlink="http://www.w3.org/1999/xlink" width="59.25989" height="84.5" viewBox="0,0,59.25989,84.5"><g transform="translate(-290.05543,-156.72097)"><g data-paper-data="{&quot;isPaintingLayer&quot;:true}" fill-rule="nonzero" stroke-linejoin="miter" stroke-miterlimit="10" stroke-dasharray="" stroke-dashoffset="0" style="mix-blend-mode: normal"><path d="M341.0129,180.47097c0,11.87412 -9.29009,21.5 -20.75,21.5c-11.45991,0 -20.75,-9.62588 -20.75,-21.5c0,-11.87412 9.29009,-21.5 20.75,-21.5c11.45991,0 20.75,9.62588 20.75,21.5z" fill="#dedede" stroke="#8e8e8e" stroke-width="4.5" stroke-linecap="butt"/><path d="M331.5129,198.47097l14.5,36.5l-52.5,0.5l16,-36.5" fill="#dedede" stroke="#8e8e8e" stroke-width="4.5" stroke-linecap="round"/><path d="M310.5129,237.47097c0,0.55228 -2.01472,1 -4.5,1c-2.48528,0 -4.5,-0.44772 -4.5,-1c0,-0.55228 2.01472,-1 4.5,-1c2.48528,0 4.5,0.44772 4.5,1z" fill="#ffffff" stroke="#8e8e8e" stroke-width="4.5" stroke-linecap="butt"/><path d="M339.0129,237.72097c0,0.69036 -1.67893,1.25 -3.75,1.25c-2.07107,0 -3.75,-0.55964 -3.75,-1.25c0,-0.69036 1.67893,-1.25 3.75,-1.25c2.07107,0 3.75,0.55964 3.75,1.25z" fill="#ffffff" stroke="#8e8e8e" stroke-width="4.5" stroke-linecap="butt"/><path d="M341.30496,207.22097c0,2.07107 -1.24365,3.75 -2.77778,3.75c-1.53412,0 -2.77778,-1.67893 -2.77778,-3.75c0,-2.07107 1.24365,-3.75 2.77778,-3.75c1.53412,0 2.77778,1.67893 2.77778,3.75z" fill="#ffffff" stroke="#8e8e8e" stroke-width="4.5" stroke-linecap="butt"/><path d="M303.0129,205.47097c1.65685,0 3,1.567 3,3.5c0,1.933 -1.34315,3.5 -3,3.5c-1.65685,0 -3,-1.567 -3,-3.5c0,-1.933 1.34315,-3.5 3,-3.5z" fill="#ffffff" stroke="#8e8e8e" stroke-width="4.5" stroke-linecap="butt"/><path d="M312.47973,182.83798l-0.1143,-7.14935" fill="none" stroke="#7700ff" stroke-width="6.5" stroke-linecap="round"/><path d="M328.16597,183.72191l-1.38758,-9.12768" fill="none" stroke="#7700ff" stroke-width="6.5" stroke-linecap="round"/></g></g></svg>