<svg version="1.1" xmlns="http://www.w3.org/2000/svg" xmlns:xlink="http://www.w3.org/1999/xlink" width="828" height="434" viewBox="0,0,828,434"><g transform="translate(88.25,75.75)"><g data-paper-data="{&quot;isPaintingLayer&quot;:true}" fill-rule="nonzero" stroke-linejoin="miter" stroke-miterlimit="10" stroke-dasharray="" stroke-dashoffset="0" style="mix-blend-mode: normal"><path d="M-24.5,269.25v-318h725v318z" fill="#2be7ee" stroke="#bab7af" stroke-width="3.5" stroke-linecap="butt"/><path d="M-1.5,358v-202h646v202z" fill="#dd8e1f" stroke="#533e00" stroke-width="0.5" stroke-linecap="butt"/><path d="M516.5,265v-27h223v27z" fill="#9a6316" stroke="#533e00" stroke-width="0.5" stroke-linecap="butt"/><path d="M533.5,237v-118h18v118z" fill="#9a6316" stroke="#533e00" stroke-width="0.5" stroke-linecap="butt"/><path d="M667.5,117l-117,2l-37,1l152,-66z" fill="#9a6316" stroke="#533e00" stroke-width="7" stroke-linecap="round"/><path d="M603.5,235v-115h92v115z" fill="#59390c" stroke="#533e00" stroke-width="7" stroke-linecap="butt"/><path d="M593.5,141v-1h5v1z" fill="#6c450e" stroke="#533e00" stroke-width="7" stroke-linecap="butt"/><path d="M591.5,182.33334v-4.66667h10v4.66667z" fill="#6c450e" stroke="#533e00" stroke-width="7" stroke-linecap="butt"/><path d="M583.89233,314.89945c-7.03422,-4.87857 -6.86808,-17.29501 0.37109,-27.73288c7.23916,-10.43787 18.81003,-14.94458 25.84425,-10.06601c7.03422,4.87857 6.86808,17.29501 -0.37109,27.73288c-7.23916,10.43787 -18.81003,14.94458 -25.84425,10.06601z" fill="#8dc91a" stroke="#468400" stroke-width="7" stroke-linecap="butt"/><path d="M553.99794,298.31099c3.19836,-7.3417 13.17938,-10.0747 22.29322,-6.10431c9.11383,3.97039 13.90927,13.14064 10.71091,20.48234c-3.19836,7.3417 -13.17938,10.0747 -22.29322,6.10431c-9.11383,-3.97039 -13.90927,-13.14064 -10.71091,-20.48234z" fill="#8dc91a" stroke="#468400" stroke-width="7" stroke-linecap="butt"/><path d="M587.5,321c-6.62742,0 -12,-12.98374 -12,-29c0,-16.01626 5.37258,-29 12,-29c6.62742,0 12,12.98374 12,29c0,16.01626 -5.37258,29 -12,29z" fill="#8dc91a" stroke="#468400" stroke-width="4" stroke-linecap="butt"/><path d="M588.25,275.5l10,-6.5" fill="none" stroke="#468400" stroke-width="4" stroke-linecap="round"/><path d="M585.75,282.5l-6,-2" fill="none" stroke="#468400" stroke-width="4" stroke-linecap="round"/><path d="M591.25,287l8,0.5" fill="none" stroke="#468400" stroke-width="4" stroke-linecap="round"/><path d="M583.75,290.5l-6.5,0.5" fill="none" stroke="#468400" stroke-width="4" stroke-linecap="round"/><path d="M589.75,304l6.5,-3.5" fill="none" stroke="#468400" stroke-width="4" stroke-linecap="round"/><path d="M582.75,304.5l-4.5,-6.5" fill="none" stroke="#468400" stroke-width="4" stroke-linecap="round"/><path d="M585.75,311.5l6,-0.5" fill="none" stroke="#468400" stroke-width="4" stroke-linecap="round"/><path d="M562.75,298.5l0.5,-13" fill="none" stroke="#468400" stroke-width="4" stroke-linecap="round"/><path d="M568.25,291.5l1,-10" fill="none" stroke="#468400" stroke-width="4" stroke-linecap="round"/><path d="M555.25,298.5l-11,-1.5" fill="none" stroke="#468400" stroke-width="4" stroke-linecap="round"/><path d="M561.25,305.5l-2.5,10" fill="none" stroke="#468400" stroke-width="4" stroke-linecap="round"/><path d="M568.75,309l3.5,-12.5" fill="none" stroke="#468400" stroke-width="4" stroke-linecap="round"/><path d="M572.75,313.5l0.5,12" fill="none" stroke="#468400" stroke-width="4" stroke-linecap="round"/><path d="M600.75,301l6.5,9" fill="none" stroke="#468400" stroke-width="4" stroke-linecap="round"/><path d="M608.25,294l11,1" fill="none" stroke="#468400" stroke-width="4" stroke-linecap="round"/><path d="M607.25,283.5l5.5,-14.5" fill="none" stroke="#468400" stroke-width="4" stroke-linecap="round"/><path d="M610.25,287l12.5,0.5" fill="none" stroke="#468400" stroke-width="4" stroke-linecap="round"/><path d="M601.75,285l1.5,-14" fill="none" stroke="#468400" stroke-width="4" stroke-linecap="round"/><path d="M583.25,275.5l-4,-17.5" fill="none" stroke="#468400" stroke-width="4" stroke-linecap="round"/><path d="M346.75045,237.47386c13.49359,0 24.43226,8.42846 24.43226,18.82557c0,10.39711 -10.93867,18.82557 -24.43226,18.82557c-13.49359,0 -24.43227,-8.42846 -24.43227,-18.82557c0,-10.39711 10.93868,-18.82557 24.43227,-18.82557z" fill="#a47d00" stroke="#ba8a00" stroke-width="3" stroke-linecap="butt"/><path d="M352,242c-5.66092,0 -10.25,-2.3505 -10.25,-5.25c0,-2.8995 4.58908,-5.25 10.25,-5.25c5.66092,0 10.25,2.3505 10.25,5.25c0,2.8995 -4.58908,5.25 -10.25,5.25z" fill="none" stroke="#ba8a00" stroke-width="3.5" stroke-linecap="butt"/><path d="M338,245.5c6.76549,0 12.25,3.80558 12.25,8.5c0,4.69442 -5.48451,8.5 -12.25,8.5c-6.76549,0 -12.25,-3.80558 -12.25,-8.5c0,-4.69442 5.48451,-8.5 12.25,-8.5z" fill="none" stroke="#ba8a00" stroke-width="3.5" stroke-linecap="butt"/><path d="M348.75,250.5c0,-8.28427 1.79086,-15 4,-15c2.20914,0 4,6.71573 4,15c0,8.28427 -1.79086,15 -4,15c-2.20914,0 -4,-6.71573 -4,-15z" fill="none" stroke="#ba8a00" stroke-width="3.5" stroke-linecap="butt"/><path d="M364.75,247.75c0,-6.76549 0.44772,-12.25 1,-12.25c0.55228,0 1,5.48451 1,12.25c0,6.76549 -0.44772,12.25 -1,12.25c-0.55228,0 -1,-5.48451 -1,-12.25z" fill="none" stroke="#ba8a00" stroke-width="3.5" stroke-linecap="butt"/><path d="M323.25,258.5c0,-13.53098 8.28273,-24.5 18.5,-24.5c10.21727,0 18.5,10.96902 18.5,24.5c0,13.53098 -8.28273,24.5 -18.5,24.5c-10.21727,0 -18.5,-10.96902 -18.5,-24.5z" fill="none" stroke="#ba8a00" stroke-width="3.5" stroke-linecap="butt"/><path d="M364.5,270.5c-7.04163,0 -12.75,-7.83501 -12.75,-17.5c0,-9.66499 5.70837,-17.5 12.75,-17.5c7.04163,0 12.75,7.83501 12.75,17.5c0,9.66499 -5.70837,17.5 -12.75,17.5z" fill="none" stroke="#ba8a00" stroke-width="3.5" stroke-linecap="butt"/><path d="M348,241c6.21321,0 11.25,6.82766 11.25,15.25c0,8.42234 -5.03679,15.25 -11.25,15.25c-6.21321,0 -11.25,-6.82766 -11.25,-15.25c0,-8.42234 5.03679,-15.25 11.25,-15.25z" fill="none" stroke="#ba8a00" stroke-width="3.5" stroke-linecap="butt"/><path d="M351.5,240.5c4.83249,0 8.75,6.82766 8.75,15.25c0,8.42234 -3.91751,15.25 -8.75,15.25c-4.83249,0 -8.75,-6.82766 -8.75,-15.25c0,-8.42234 3.91751,-15.25 8.75,-15.25z" fill="none" stroke="#ba8a00" stroke-width="3.5" stroke-linecap="butt"/><path d="M337.75,243.5c5.79899,0 10.5,5.70837 10.5,12.75c0,7.04163 -4.70101,12.75 -10.5,12.75c-5.79899,0 -10.5,-5.70837 -10.5,-12.75c0,-7.04163 4.70101,-12.75 10.5,-12.75z" fill="none" stroke="#ba8a00" stroke-width="3.5" stroke-linecap="butt"/><path d="M-81.5,266.25v-26h207v26z" fill="#a1b2b2" stroke="#bab7af" stroke-width="3.5" stroke-linecap="butt"/><path d="M-86.5,95.25v-18h212v18z" fill="#b3aeac" stroke="#bab7af" stroke-width="3.5" stroke-linecap="butt"/><path d="M-84.5,238.25v-142h188v142z" fill="#b34b21" stroke="#bab7af" stroke-width="3.5" stroke-linecap="butt"/><path d="M103.5,115.25l-105,2" fill="none" stroke="#bab7af" stroke-width="3.5" stroke-linecap="round"/><path d="M103.5,137.25l-105,2" fill="none" stroke="#bab7af" stroke-width="3.5" stroke-linecap="round"/><path d="M101.5,157.25l-108,3" fill="none" stroke="#bab7af" stroke-width="3.5" stroke-linecap="round"/><path d="M102.5,175.25l-109,3" fill="none" stroke="#bab7af" stroke-width="3.5" stroke-linecap="round"/><path d="M103.5,193.25l-112,2" fill="none" stroke="#bab7af" stroke-width="3.5" stroke-linecap="round"/><path d="M103.5,212.25l-113,3" fill="none" stroke="#bab7af" stroke-width="3.5" stroke-linecap="round"/><path d="M102.5,224.25l-126,2" fill="none" stroke="#bab7af" stroke-width="3.5" stroke-linecap="round"/><path d="M85.5,97.25v16" fill="none" stroke="#bab7af" stroke-width="3.5" stroke-linecap="round"/><path d="M49.5,100.25v13" fill="none" stroke="#bab7af" stroke-width="3.5" stroke-linecap="round"/><path d="M12.5,98.25v18" fill="none" stroke="#bab7af" stroke-width="3.5" stroke-linecap="round"/><path d="M29.5,117.25l1,20" fill="none" stroke="#bab7af" stroke-width="3.5" stroke-linecap="round"/><path d="M67.5,115.25l2,23" fill="none" stroke="#bab7af" stroke-width="3.5" stroke-linecap="round"/><path d="M88.5,138.25v14v6" fill="none" stroke="#bab7af" stroke-width="3.5" stroke-linecap="round"/><path d="M47.5,137.25v22" fill="none" stroke="#bab7af" stroke-width="3.5" stroke-linecap="round"/><path d="M12.5,136.25v24" fill="none" stroke="#bab7af" stroke-width="3.5" stroke-linecap="round"/><path d="M30.5,157.25v17" fill="none" stroke="#bab7af" stroke-width="3.5" stroke-linecap="round"/><path d="M68.5,160.25l1,14" fill="none" stroke="#bab7af" stroke-width="3.5" stroke-linecap="round"/><path d="M85.5,176.25l-1,17" fill="none" stroke="#bab7af" stroke-width="3.5" stroke-linecap="round"/><path d="M50.5,175.25l-1,18" fill="none" stroke="#bab7af" stroke-width="3.5" stroke-linecap="round"/><path d="M11.5,178.25v17" fill="none" stroke="#bab7af" stroke-width="3.5" stroke-linecap="round"/><path d="M31.5,191.25v22" fill="none" stroke="#bab7af" stroke-width="3.5" stroke-linecap="round"/><path d="M64.5,195.25l2,17" fill="none" stroke="#bab7af" stroke-width="3.5" stroke-linecap="round"/><path d="M89.5,214.25l2,11" fill="none" stroke="#bab7af" stroke-width="3.5" stroke-linecap="round"/><path d="M46.5,215.25l1,10" fill="none" stroke="#bab7af" stroke-width="3.5" stroke-linecap="round"/><path d="M11.5,215.25l1,8" fill="none" stroke="#bab7af" stroke-width="3.5" stroke-linecap="round"/><path d="M28.5,224.25l1,11" fill="none" stroke="#bab7af" stroke-width="3.5" stroke-linecap="round"/><path d="M66.5,226.25v8" fill="none" stroke="#bab7af" stroke-width="3.5" stroke-linecap="round"/><path d="M145.5,26.25c0,9.94113 -10.74516,18 -24,18c-13.25483,0 -24,-8.05887 -24,-18c0,-9.94112 10.74517,-18 24,-18c13.25484,0 24,8.05888 24,18z" fill="#ededed" stroke="#d9d5cc" stroke-width="3.5" stroke-linecap="butt"/><path d="M59.5,11.75c0,-11.87412 12.98374,-21.5 29,-21.5c16.01626,0 29,9.62588 29,21.5c0,11.87412 -12.98374,21.5 -29,21.5c-16.01626,0 -29,-9.62588 -29,-21.5z" fill="#ededed" stroke="#d9d5cc" stroke-width="3.5" stroke-linecap="butt"/><path d="M75,20.25c16.84468,0 30.5,5.37259 30.5,12c0,6.62741 -13.65532,12 -30.5,12c-16.84468,0 -30.5,-5.37259 -30.5,-12c0,-6.62741 13.65532,-12 30.5,-12z" fill="#ededed" stroke="#d9d5cc" stroke-width="3.5" stroke-linecap="butt"/><path d="M533,12.25c-25.68124,0 -46.5,-9.40202 -46.5,-21c0,-11.59798 20.81876,-21 46.5,-21c25.68124,0 46.5,9.40202 46.5,21c0,11.59798 -20.81876,21 -46.5,21z" fill="#ededed" stroke="#d9d5cc" stroke-width="3.5" stroke-linecap="butt"/><path d="M52.5,-73.75c0,-1.10457 0.89543,-2 2,-2c1.10457,0 2,0.89543 2,2c0,1.10457 -0.89543,2 -2,2c-1.10457,0 -2,-0.89543 -2,-2z" fill="#ededed" stroke="none" stroke-width="0.5" stroke-linecap="butt"/><path d="M440.5,44.25l31,-10l13,13l19,-12l24,14" fill="none" stroke="#000000" stroke-width="3.5" stroke-linecap="round"/><path d="M121.5,95.25v-18h9v18z" fill="#caaf05" stroke="#8a8c00" stroke-width="3.5" stroke-linecap="butt"/><path d="M104.5,201.25v-50h6v50z" fill="#8b7903" stroke="#646500" stroke-width="3.5" stroke-linecap="butt"/><path d="M15.5,201.25v-67h76v67z" fill="#9d8800" stroke="#787a07" stroke-width="3.5" stroke-linecap="butt"/><path d="M26.5,132.25v-11h8v11z" fill="#9d8800" stroke="#787a07" stroke-width="3.5" stroke-linecap="butt"/><path d="M76.5,133.25v-11h8v11z" fill="#9d8800" stroke="#787a07" stroke-width="3.5" stroke-linecap="butt"/><path d="M27.5,234.25v-32h11v32z" fill="#9d8800" stroke="#787a07" stroke-width="3.5" stroke-linecap="butt"/><path d="M76.5,236.25v-35h10v35z" fill="#9d8800" stroke="#787a07" stroke-width="3.5" stroke-linecap="butt"/><path d="M21,184.25v-34.5h21.5v34.5z" fill="#ebebeb" stroke="#cecece" stroke-width="3.5" stroke-linecap="butt"/><path d="M46,186.25v-39h23v39z" fill="#ebebeb" stroke="#cecece" stroke-width="3.5" stroke-linecap="butt"/><path d="M73.5,186.25v-39.5h14.5v39.5z" fill="#ebebeb" stroke="#cecece" stroke-width="3.5" stroke-linecap="butt"/><path d="M25,176.25l11.5,0.5" fill="none" stroke="#000000" stroke-width="3.5" stroke-linecap="round"/><path d="M24.5,169.75h11.5" fill="none" stroke="#000000" stroke-width="3.5" stroke-linecap="round"/><path d="M50.5,168.75l12.5,0.5" fill="none" stroke="#000000" stroke-width="3.5" stroke-linecap="round"/><path d="M62.5,172.75l-9.5,-0.5" fill="none" stroke="#000000" stroke-width="3.5" stroke-linecap="round"/><path d="M63,178.25h-11" fill="none" stroke="#000000" stroke-width="3.5" stroke-linecap="round"/><path d="M78.5,172.25h5" fill="none" stroke="#000000" stroke-width="3.5" stroke-linecap="round"/><path d="M76.5,177.25h5.5" fill="none" stroke="#000000" stroke-width="3.5" stroke-linecap="round"/><path d="M76.5,182.25h5.5" fill="none" stroke="#000000" stroke-width="3.5" stroke-linecap="round"/><g stroke="#8e8e8e" stroke-width="4.5"><path d="M34.59342,155.01827c0,2.19106 -1.56494,3.96726 -3.49539,3.96726c-1.93045,0 -3.49539,-1.7762 -3.49539,-3.96726c0,-2.19106 1.56494,-3.96726 3.49539,-3.96726c1.93045,0 3.49539,1.7762 3.49539,3.96726z" fill="#dedede" stroke-linecap="butt"/><path d="M32.99312,158.3397l2.44256,6.73512l-8.84375,0.09226l2.69524,-6.73512" fill="#dedede" stroke-linecap="round"/><path d="M29.45562,165.53612c0,0.10191 -0.33938,0.18452 -0.75804,0.18452c-0.41865,0 -0.75804,-0.08262 -0.75804,-0.18452c0,-0.10191 0.33938,-0.18452 0.75804,-0.18452c0.41865,0 0.75804,0.08262 0.75804,0.18452z" fill="#ffffff" stroke-linecap="butt"/><path d="M34.25651,165.58226c0,0.12739 -0.28282,0.23065 -0.6317,0.23065c-0.34888,0 -0.6317,-0.10327 -0.6317,-0.23065c0,-0.12739 0.28282,-0.23065 0.6317,-0.23065c0.34888,0 0.6317,0.10327 0.6317,0.23065z" fill="#ffffff" stroke-linecap="butt"/><path d="M34.64262,159.95428c0,0.38216 -0.2095,0.69196 -0.46792,0.69196c-0.25843,0 -0.46792,-0.3098 -0.46792,-0.69196c0,-0.38216 0.2095,-0.69196 0.46792,-0.69196c0.25843,0 0.46792,0.3098 0.46792,0.69196z" fill="#ffffff" stroke-linecap="butt"/><path d="M28.19223,159.63136c0.2791,0 0.50536,0.28915 0.50536,0.64583c0,0.35668 -0.22626,0.64583 -0.50536,0.64583c-0.2791,0 -0.50536,-0.28915 -0.50536,-0.64583c0,-0.35668 0.22626,-0.64583 0.50536,-0.64583z" fill="#ffffff" stroke-linecap="butt"/></g><g stroke="#8e8e8e" stroke-width="4.5"><path d="M83.83003,155.15532c0,2.56919 -1.41563,4.65193 -3.1619,4.65193c-1.74627,0 -3.1619,-2.08274 -3.1619,-4.65193c0,-2.56919 1.41563,-4.65193 3.1619,-4.65193c1.74627,0 3.1619,2.08274 3.1619,4.65193z" fill="#dedede" stroke-linecap="butt"/><path d="M82.38241,159.04996l2.20952,7.89747l-8,0.10818l2.4381,-7.89747" fill="#dedede" stroke-linecap="round"/><path d="M79.18241,167.48836c0,0.1195 -0.307,0.21637 -0.68571,0.21637c-0.37871,0 -0.68571,-0.09687 -0.68571,-0.21637c0,-0.1195 0.307,-0.21637 0.68571,-0.21637c0.37871,0 0.68571,0.09687 0.68571,0.21637z" fill="#ffffff" stroke-linecap="butt"/><path d="M83.52526,167.54245c0,0.14937 -0.25584,0.27046 -0.57143,0.27046c-0.31559,0 -0.57143,-0.12109 -0.57143,-0.27046c0,-0.14937 0.25584,-0.27046 0.57143,-0.27046c0.31559,0 0.57143,0.12109 0.57143,0.27046z" fill="#ffffff" stroke-linecap="butt"/><path d="M83.87453,160.94319c0,0.44812 -0.18951,0.81138 -0.42328,0.81138c-0.23377,0 -0.42328,-0.36327 -0.42328,-0.81138c0,-0.44812 0.18951,-0.81138 0.42328,-0.81138c0.23377,0 0.42328,0.36327 0.42328,0.81138z" fill="#ffffff" stroke-linecap="butt"/><path d="M78.03955,160.56455c0.25247,0 0.45714,0.33905 0.45714,0.75729c0,0.41824 -0.20467,0.75729 -0.45714,0.75729c-0.25247,0 -0.45714,-0.33905 -0.45714,-0.75729c0,-0.41824 0.20467,-0.75729 0.45714,-0.75729z" fill="#ffffff" stroke-linecap="butt"/></g><g fill="#dedede" stroke="#8e8e8e" stroke-linecap="butt"><path d="M59.99214,159.5726c0,2.09296 -1.46697,3.78965 -3.27658,3.78965c-1.8096,0 -3.27658,-1.69668 -3.27658,-3.78965c0,-2.09296 1.46697,-3.78965 3.27658,-3.78965c1.8096,0 3.27658,1.69668 3.27658,3.78965z" stroke-width="4.5"/><path d="M61.5612,158.94793c0,0.50599 -0.5372,0.91618 -1.19987,0.91618c-0.66267,0 -1.19987,-0.41019 -1.19987,-0.91618c0,-0.50599 0.5372,-0.91618 1.19987,-0.91618c0.66267,0 1.19987,0.41019 1.19987,0.91618z" stroke-width="4.5"/><path d="M52.46985,157.94847c0.63718,0 1.15372,0.3729 1.15372,0.83289c0,0.45999 -0.51654,0.83289 -1.15372,0.83289c-0.63718,0 -1.15372,-0.3729 -1.15372,-0.83289c0,-0.45999 0.51654,-0.83289 1.15372,-0.83289z" stroke-width="4.5"/><path d="M52.7929,156.53256v-6.66311h8.12222v6.66311z" stroke-width="4.5"/><path d="M56.7775,158.04894c-1.72442,0 -3.12234,-1.70053 -3.12234,-3.79824c0,-2.09771 1.39792,-3.79824 3.12234,-3.79824c1.72442,0 3.12234,1.70053 3.12234,3.79824c0,2.09771 -1.39792,3.79824 -3.12234,3.79824z" stroke-width="0"/><path d="M60.03828,163.86198c0,0.39099 -0.45455,0.70796 -1.01528,0.70796c-0.56072,0 -1.01528,-0.31696 -1.01528,-0.70796c0,-0.39099 0.45455,-0.70796 1.01528,-0.70796c0.56072,0 1.01528,0.31696 1.01528,0.70796z" stroke-width="4.5"/><path d="M54.59271,163.3206c0.6117,0 1.10758,0.29832 1.10758,0.66631c0,0.36799 -0.49588,0.66631 -1.10758,0.66631c-0.6117,0 -1.10758,-0.29832 -1.10758,-0.66631c0,-0.36799 0.49588,-0.66631 1.10758,-0.66631z" stroke-width="4.5"/></g></g></g></svg>