<svg version="1.1" xmlns="http://www.w3.org/2000/svg" xmlns:xlink="http://www.w3.org/1999/xlink" width="83.27052" height="60.92985" viewBox="0,0,83.27052,60.92985"><g transform="translate(-281.63051,-147.67115)"><g data-paper-data="{&quot;isPaintingLayer&quot;:true}" fill-rule="nonzero" stroke-linecap="butt" stroke-linejoin="miter" stroke-miterlimit="10" stroke-dasharray="" stroke-dashoffset="0" style="mix-blend-mode: normal"><path d="M316.59117,206.28441c-13.8033,-17.19189 -31.86076,-20.31899 -33.71066,-38.91368c-0.90933,-9.14033 5.30237,-17.24995 13.86542,-18.10185c5.43267,-0.54047 10.50125,1.97965 13.71885,6.2237c-0.48544,1.20951 -0.808,2.39068 -0.39343,3.10911c0.34366,0.59556 1.32526,0.52846 1.77787,1.04609c0.28838,0.32981 -1.06205,2.44974 -1.21467,2.7844c-1.02716,2.25236 -0.29521,3.76951 2.07516,4.44429c-0.11098,1.57277 -0.27623,3.07842 -0.49747,4.62445c-0.11582,0.80935 -1.0198,2.41505 -0.81996,3.19722c0.43443,1.70037 3.16096,0.29156 2.50303,2.08903c-1.07658,2.94125 -2.89273,5.35545 -3.7947,8.3686c-0.15705,0.52464 -0.82608,1.00748 -0.62816,1.51811c0.26173,0.67524 2.5007,0.50608 3.10924,0.54539c1.86076,0.33695 3.76083,0.18853 5.64757,0.17066c-0.73882,0.78398 -1.49305,2.5211 -1.69882,3.18627c-1.47459,4.76663 0.08095,8.86415 0.53699,13.55042c0.03619,0.36376 0.0634,0.71221 0.08132,1.05107c-0.18876,0.36457 -0.37469,0.73343 -0.55759,1.10673z" fill="#ff0000" stroke="#ff99e5" stroke-width="2.5"/><path d="M326.53806,156.51382c3.28795,-5.23674 9.17651,-8.34537 15.35174,-7.43522c8.51335,1.25476 14.33571,9.64829 12.99636,18.73557c-2.47786,16.81189 -19.33978,20.37135 -32.92426,34.42303c0.13576,-2.04856 -0.10137,-4.04689 0.31877,-6.12782c0.68858,-3.41053 2.46747,-5.74401 4.66053,-8.1695l0.60224,-0.35157c0.19285,-0.11038 0.33494,-0.30497 0.36985,-0.54184c0.053,-0.35957 -0.15858,-0.69709 -0.48807,-0.81522l-1.06272,-0.40609l-0.00408,0.01069l-0.03806,-0.02537c-1.89906,-0.47879 -3.86902,-0.774 -5.65856,-1.58312c-0.3238,-0.10471 -1.01092,-0.19472 -1.50652,-0.2342c0.64706,-0.32186 1.00715,-1.67813 1.31193,-2.10246c1.30969,-1.8234 3.79553,-3.2705 4.77107,-5.32713c0.68856,-1.45162 0.66358,-2.14651 -0.58423,-3.0752c-0.32334,-0.24065 -1.30432,-0.01703 -1.14543,-0.38745c1.1562,-2.69554 2.84251,-4.65685 3.07492,-7.73145c-0.13935,-0.12725 -2.15415,-1.69401 -1.98138,-2.15432c0.52977,-1.41148 2.14559,-2.15988 2.65873,-3.6214c0.15573,-0.44355 0.39754,-0.93294 0.26747,-1.38467c-0.29777,-1.0342 -1.0466,-0.47467 -1.41686,-1.25303c-0.11501,-0.24177 0.12811,-0.46245 0.3588,-0.68223c0.02315,0.07977 0.04575,0.15979 0.06778,0.24003z" fill="#ff0000" stroke="#ff99e5" stroke-width="2.5"/><path d="M343.88909,187.80814c-0.57423,0.28711 -0.86134,-0.28711 -0.86134,-0.28711l-0.12287,-0.24822c-0.84092,-1.97505 -0.89867,-4.09994 -1.69838,-6.05848c-3.70436,2.7585 -7.83373,5.15682 -11.76259,7.12882c0,0 -0.57423,0.28711 -0.86134,-0.28711c-0.28711,-0.57423 0.28711,-0.86134 0.28711,-0.86134c1.58571,-0.78951 2.93034,-1.95939 4.44988,-2.86474c2.4942,-1.48604 4.91952,-2.85065 7.21653,-4.41784c-1.07335,-1.76168 -2.41106,-3.42805 -3.59676,-5.16302c-3.77904,2.75135 -7.62895,5.36289 -11.88246,7.49497c0,0 -0.57423,0.28711 -0.86134,-0.28711c-0.28711,-0.57423 0.28711,-0.86134 0.28711,-0.86134c4.21277,-2.10077 8.01823,-4.69096 11.75392,-7.41769c-0.83737,-1.33941 -1.53903,-2.73724 -1.9245,-4.26454c0,0 -0.15571,-0.62284 0.46713,-0.77855c0.62283,-0.15571 0.77854,0.46713 0.77854,0.46713c0.3363,1.35947 0.95111,2.61983 1.69479,3.83021c1.88376,-1.3897 3.75753,-2.80611 5.6649,-4.20363c0.36612,-0.23531 0.83001,-0.51091 1.34138,-0.81861c-1.1047,-1.37446 -2.10581,-2.82832 -2.65686,-4.44132c0,0 -0.20302,-0.60906 0.40604,-0.81208c0.60906,-0.20302 0.81208,0.40604 0.81208,0.40604c0.4869,1.50885 1.45367,2.88667 2.51923,4.18577c1.76169,-1.10682 3.66269,-2.48379 4.07376,-3.86476l-0.03295,0.09602c0,0 0,-0.64201 0.64201,-0.64201c0.64201,0 0.64201,0.64201 0.64201,0.64201l-0.03295,0.31002c-0.60834,1.70572 -2.5839,3.2016 -4.47484,4.42524c0.61807,0.71529 1.23707,1.40955 1.78776,2.09229c0.16218,0.20106 0.32296,0.4046 0.48237,0.61036c0.50178,-1.13561 0.92157,-2.32817 1.29936,-3.65523l0.54419,-0.50486c0,0 0.57423,-0.28711 0.86134,0.28711c0.24137,0.48274 -0.126,0.76257 -0.24919,0.83948c-0.44811,1.51826 -0.96084,2.88502 -1.58633,4.19518c1.51436,2.09191 2.89584,4.35447 4.14631,6.55472l0.39834,0.49483c0,0 0.40106,0.50132 -0.10026,0.90238c-0.50132,0.40106 -0.90238,-0.10026 -0.90238,-0.10026l-0.45767,-0.57518c-1.14932,-2.00151 -2.38975,-4.05854 -3.74514,-5.98912c-0.60757,1.10491 -1.3106,2.19118 -2.13987,3.31938c-1.29871,1.30234 -2.7282,2.54752 -4.24261,3.7307c0.89415,2.06034 0.93564,4.27297 1.83256,6.35036l0.09113,0.17979c0,0 0.28711,0.57423 -0.28711,0.86134zM345.52075,175.84973c0.91282,-1.24622 1.65601,-2.42267 2.28215,-3.63139c-0.28122,-0.3754 -0.56725,-0.74424 -0.85829,-1.10506c-0.58839,-0.72948 -1.23202,-1.46376 -1.86946,-2.217c-0.5187,0.32086 -1.00708,0.6182 -1.43059,0.89053c-1.91543,1.40595 -3.79901,2.82735 -5.69298,4.22113c1.18953,1.74549 2.56143,3.41444 3.63723,5.16392c1.36538,-0.99093 2.68041,-2.07436 3.93193,-3.32212z" fill="#c76767" stroke="none" stroke-width="0.5"/><g><text transform="translate(342.17954,175.12435) rotate(141.75519) scale(0.34709,0.34709)" font-size="40" xml:space="preserve" fill="#000000" fill-rule="nonzero" stroke="none" stroke-width="1" stroke-linecap="butt" stroke-linejoin="miter" stroke-miterlimit="10" stroke-dasharray="" stroke-dashoffset="0" font-family="Pixel" font-weight="normal" text-anchor="start" style="mix-blend-mode: normal"><tspan x="0" dy="0">x2</tspan></text><path d="M329.58109,195.23525c-1.16965,-1.48398 -3.61257,-4.19766 -2.26608,-6.98944c1.76117,-3.65154 8.09962,-7.66242 12.98409,-11.51227c6.06557,-4.78076 12.37317,-10.39549 16.53884,-10.42255c1.75356,-0.01139 3.15518,3.30913 3.9549,4.32377c0.74927,0.95063 3.40779,3.18799 3.08041,4.75146c-0.85213,4.06945 -7.57178,8.84252 -13.79842,13.75023c-5.24382,4.13308 -11.53792,9.19547 -15.60995,9.84949c-2.62087,0.42095 -3.8267,-2.40953 -4.88379,-3.75071z" fill="#c58566" stroke="#000000" stroke-width="2"/><path d="M347.93469,175.90803c0,0 2.64013,4.33088 3.55143,5.48709c0.41749,0.52968 0.34712,0.72075 0.34712,0.72075c0,0 0.07924,0.48318 -0.28437,0.76219c-1.10915,0.85109 -6.47598,4.38951 -8.43588,6.14009c-0.47678,0.42586 -0.77715,0.25193 -0.77715,0.25193c0,0 -0.03093,-0.17942 -0.52269,-0.80334c-0.92935,-1.1791 -4.37323,-4.28694 -4.37323,-4.28694z" fill="#c58566" stroke="#000000" stroke-width="2"/><path d="M360.73578,174.76762c0.17799,0.22582 0.13921,0.55317 -0.08661,0.73116c-0.22582,0.17799 -0.55317,0.13921 -0.73116,-0.08661c-0.17799,-0.22582 -0.13921,-0.55317 0.08661,-0.73116c0.22582,-0.17799 0.55317,-0.13921 0.73116,0.08661z" fill="#000000" stroke="none" stroke-width="0.5"/><path d="M359.82669,173.05352c0.17799,0.22582 0.13921,0.55317 -0.08661,0.73116c-0.22582,0.17799 -0.55317,0.13921 -0.73116,-0.08661c-0.17799,-0.22582 -0.13921,-0.55317 0.08661,-0.73116c0.22582,-0.17799 0.55317,-0.13921 0.73116,0.08661z" fill="#000000" stroke="none" stroke-width="0.5"/><path d="M358.62016,171.24239c0.17799,0.22582 0.13921,0.55317 -0.08661,0.73116c-0.22582,0.17799 -0.55317,0.13921 -0.73116,-0.08661c-0.17799,-0.22582 -0.13921,-0.55317 0.08661,-0.73116c0.22582,-0.17799 0.55317,-0.13921 0.73116,0.08661z" fill="#000000" stroke="none" stroke-width="0.5"/><path d="M357.27734,169.53869c0.17799,0.22582 0.13921,0.55317 -0.08661,0.73116c-0.22582,0.17799 -0.55317,0.13921 -0.73116,-0.08661c-0.17799,-0.22582 -0.13921,-0.55317 0.08661,-0.73116c0.22582,-0.17799 0.55317,-0.13921 0.73116,0.08661z" fill="#000000" stroke="none" stroke-width="0.5"/><path d="M356.1581,170.64182c0.17799,0.22582 0.13921,0.55317 -0.08661,0.73116c-0.22582,0.17799 -0.55317,0.13921 -0.73116,-0.08661c-0.17799,-0.22582 -0.13921,-0.55317 0.08661,-0.73116c0.22582,-0.17799 0.55317,-0.13921 0.73116,0.08661z" fill="#000000" stroke="none" stroke-width="0.5"/><path d="M357.1538,171.62476c0.17799,0.22582 0.13921,0.55317 -0.08661,0.73116c-0.22582,0.17799 -0.55317,0.13921 -0.73116,-0.08661c-0.17799,-0.22582 -0.13921,-0.55317 0.08661,-0.73116c0.22582,-0.17799 0.55317,-0.13921 0.73116,0.08661z" fill="#000000" stroke="none" stroke-width="0.5"/><path d="M357.82958,173.74373c0.17799,0.22582 0.13921,0.55317 -0.08661,0.73116c-0.22582,0.17799 -0.55317,0.13921 -0.73116,-0.08661c-0.17799,-0.22582 -0.13921,-0.55317 0.08661,-0.73116c0.22582,-0.17799 0.55317,-0.13921 0.73116,0.08661z" fill="#000000" stroke="none" stroke-width="0.5"/><path d="M358.91425,175.54042c0.17799,0.22582 0.13921,0.55317 -0.08661,0.73116c-0.22582,0.17799 -0.55317,0.13921 -0.73116,-0.08661c-0.17799,-0.22582 -0.13921,-0.55317 0.08661,-0.73116c0.22582,-0.17799 0.55317,-0.13921 0.73116,0.08661z" fill="#000000" stroke="none" stroke-width="0.5"/><path d="M357.56572,176.49281c0.17799,0.22582 0.13921,0.55317 -0.08661,0.73116c-0.22582,0.17799 -0.55317,0.13921 -0.73116,-0.08661c-0.17799,-0.22582 -0.13921,-0.55317 0.08661,-0.73116c0.22582,-0.17799 0.55317,-0.13921 0.73116,0.08661z" fill="#000000" stroke="none" stroke-width="0.5"/><path d="M356.82179,174.42756c0.17799,0.22582 0.13921,0.55317 -0.08661,0.73116c-0.22582,0.17799 -0.55317,0.13921 -0.73116,-0.08661c-0.17799,-0.22582 -0.13921,-0.55317 0.08661,-0.73116c0.22582,-0.17799 0.55317,-0.13921 0.73116,0.08661z" fill="#000000" stroke="none" stroke-width="0.5"/><path d="M355.50382,173.03573c0.17799,0.22582 0.13921,0.55317 -0.08661,0.73116c-0.22582,0.17799 -0.55317,0.13921 -0.73116,-0.08661c-0.17799,-0.22582 -0.13921,-0.55317 0.08661,-0.73116c0.22582,-0.17799 0.55317,-0.13921 0.73116,0.08661z" fill="#000000" stroke="none" stroke-width="0.5"/><path d="M353.99986,171.12758c0.17799,0.22582 0.13921,0.55317 -0.08661,0.73116c-0.22582,0.17799 -0.55317,0.13921 -0.73116,-0.08661c-0.17799,-0.22582 -0.13921,-0.55317 0.08661,-0.73116c0.22582,-0.17799 0.55317,-0.13921 0.73116,0.08661z" fill="#000000" stroke="none" stroke-width="0.5"/><path d="M353.10991,172.38144c0.17799,0.22582 0.13921,0.55317 -0.08661,0.73116c-0.22582,0.17799 -0.55317,0.13921 -0.73116,-0.08661c-0.17799,-0.22582 -0.13921,-0.55317 0.08661,-0.73116c0.22582,-0.17799 0.55317,-0.13921 0.73116,0.08661z" fill="#000000" stroke="none" stroke-width="0.5"/><path d="M354.7213,174.42588c0.17799,0.22582 0.13921,0.55317 -0.08661,0.73116c-0.22582,0.17799 -0.55317,0.13921 -0.73116,-0.08661c-0.17799,-0.22582 -0.13921,-0.55317 0.08661,-0.73116c0.22582,-0.17799 0.55317,-0.13921 0.73116,0.08661z" fill="#000000" stroke="none" stroke-width="0.5"/><path d="M356.13865,177.06519c0.17799,0.22582 0.13921,0.55317 -0.08661,0.73116c-0.22582,0.17799 -0.55317,0.13921 -0.73116,-0.08661c-0.10573,-0.13415 -0.13497,-0.30413 -0.09395,-0.45734c-0.05459,-0.03195 -0.10423,-0.07444 -0.14575,-0.12712c-0.17799,-0.22582 -0.13921,-0.55317 0.08661,-0.73116c0.22582,-0.17799 0.55317,-0.13921 0.73116,0.08661c0.10573,0.13415 0.13497,0.30413 0.09395,0.45734c0.05459,0.03195 0.10423,0.07444 0.14575,0.12712z" fill="#000000" stroke="none" stroke-width="0.5"/><path d="M340.0084,190.66259c0.17799,0.22582 0.13921,0.55317 -0.08661,0.73116c-0.22582,0.17799 -0.55317,0.13921 -0.73116,-0.08661c-0.17799,-0.22582 -0.13921,-0.55317 0.08661,-0.73116c0.22582,-0.17799 0.55317,-0.13921 0.73116,0.08661z" fill="#000000" stroke="none" stroke-width="0.5"/><path d="M338.55178,187.83327c0.17799,0.22582 0.13921,0.55317 -0.08661,0.73116c-0.22582,0.17799 -0.55317,0.13921 -0.73116,-0.08661c-0.17799,-0.22582 -0.13921,-0.55317 0.08661,-0.73116c0.22582,-0.17799 0.55317,-0.13921 0.73116,0.08661z" fill="#000000" stroke="none" stroke-width="0.5"/><path d="M336.6678,186.00369c0.17799,0.22582 0.13921,0.55317 -0.08661,0.73116c-0.22582,0.17799 -0.55317,0.13921 -0.73116,-0.08661c-0.17799,-0.22582 -0.13921,-0.55317 0.08661,-0.73116c0.22582,-0.17799 0.55317,-0.13921 0.73116,0.08661z" fill="#000000" stroke="none" stroke-width="0.5"/><path d="M335.40756,184.12442c0.17799,0.22582 0.13921,0.55317 -0.08661,0.73116c-0.22582,0.17799 -0.55317,0.13921 -0.73116,-0.08661c-0.17799,-0.22582 -0.13921,-0.55317 0.08661,-0.73116c0.22582,-0.17799 0.55317,-0.13921 0.73116,0.08661z" fill="#000000" stroke="none" stroke-width="0.5"/><path d="M338.53801,191.60056c0.17799,0.22582 0.13921,0.55317 -0.08661,0.73116c-0.22582,0.17799 -0.55317,0.13921 -0.73116,-0.08661c-0.17799,-0.22582 -0.13921,-0.55317 0.08661,-0.73116c0.22582,-0.17799 0.55317,-0.13921 0.73116,0.08661z" fill="#000000" stroke="none" stroke-width="0.5"/><path d="M336.2099,189.34764c0.17799,0.22582 0.13921,0.55317 -0.08661,0.73116c-0.22582,0.17799 -0.55317,0.13921 -0.73116,-0.08661c-0.17799,-0.22582 -0.13921,-0.55317 0.08661,-0.73116c0.22582,-0.17799 0.55317,-0.13921 0.73116,0.08661z" fill="#000000" stroke="none" stroke-width="0.5"/><path d="M334.51996,186.92319c0.17799,0.22582 0.13921,0.55317 -0.08661,0.73116c-0.22582,0.17799 -0.55317,0.13921 -0.73116,-0.08661c-0.17799,-0.22582 -0.13921,-0.55317 0.08661,-0.73116c0.22582,-0.17799 0.55317,-0.13921 0.73116,0.08661z" fill="#000000" stroke="none" stroke-width="0.5"/><path d="M333.04084,185.32692c0.17799,0.22582 0.13921,0.55317 -0.08661,0.73116c-0.22582,0.17799 -0.55317,0.13921 -0.73116,-0.08661c-0.17799,-0.22582 -0.13921,-0.55317 0.08661,-0.73116c0.22582,-0.17799 0.55317,-0.13921 0.73116,0.08661z" fill="#000000" stroke="none" stroke-width="0.5"/><path d="M331.79169,187.52679c-0.40889,0.32228 -0.73116,-0.08661 -0.73116,-0.08661c-0.10743,-0.13629 -0.26857,-0.34074 -0.37599,-0.47704c0,0 -0.32228,-0.40889 0.08661,-0.73116c0.40889,-0.32228 0.73116,0.08661 0.73116,0.08661c0.10743,0.13629 0.21485,0.27259 0.32228,0.40889l0.05371,0.06815c0,0 0.32228,0.40889 -0.08661,0.73116z" fill="#000000" stroke="none" stroke-width="0.5"/><path d="M332.91328,187.96858c0.17799,0.22582 0.13921,0.55317 -0.08661,0.73116c-0.22582,0.17799 -0.55317,0.13921 -0.73116,-0.08661c-0.17799,-0.22582 -0.13921,-0.55317 0.08661,-0.73116c0.22582,-0.17799 0.55317,-0.13921 0.73116,0.08661z" fill="#000000" stroke="none" stroke-width="0.5"/><path d="M334.20239,189.60412c0.17799,0.22582 0.13921,0.55317 -0.08661,0.73116c-0.22582,0.17799 -0.55317,0.13921 -0.73116,-0.08661c-0.17799,-0.22582 -0.13921,-0.55317 0.08661,-0.73116c0.22582,-0.17799 0.55317,-0.13921 0.73116,0.08661z" fill="#000000" stroke="none" stroke-width="0.5"/><path d="M335.15478,190.95265c0.17799,0.22582 0.13921,0.55317 -0.08661,0.73116c-0.22582,0.17799 -0.55317,0.13921 -0.73116,-0.08661c-0.17799,-0.22582 -0.13921,-0.55317 0.08661,-0.73116c0.22582,-0.17799 0.55317,-0.13921 0.73116,0.08661z" fill="#000000" stroke="none" stroke-width="0.5"/><path d="M330.74463,188.02061c0.17799,0.22582 0.13921,0.55317 -0.08661,0.73116c-0.22582,0.17799 -0.55317,0.13921 -0.73116,-0.08661c-0.17799,-0.22582 -0.13921,-0.55317 0.08661,-0.73116c0.22582,-0.17799 0.55317,-0.13921 0.73116,0.08661z" fill="#000000" stroke="none" stroke-width="0.5"/><path d="M332.94685,190.81468c0.17799,0.22582 0.13921,0.55317 -0.08661,0.73116c-0.22582,0.17799 -0.55317,0.13921 -0.73116,-0.08661c-0.17799,-0.22582 -0.13921,-0.55317 0.08661,-0.73116c0.22582,-0.17799 0.55317,-0.13921 0.73116,0.08661z" fill="#000000" stroke="none" stroke-width="0.5"/><path d="M334.11008,192.99139c0.17799,0.22582 0.13921,0.55317 -0.08661,0.73116c-0.22582,0.17799 -0.55317,0.13921 -0.73116,-0.08661c-0.17799,-0.22582 -0.13921,-0.55317 0.08661,-0.73116c0.22582,-0.17799 0.55317,-0.13921 0.73116,0.08661z" fill="#000000" stroke="none" stroke-width="0.5"/><path d="M334.87649,193.82359c0.17799,0.22582 0.13921,0.55317 -0.08661,0.73116c-0.22582,0.17799 -0.55317,0.13921 -0.73116,-0.08661c-0.17799,-0.22582 -0.13921,-0.55317 0.08661,-0.73116c0.22582,-0.17799 0.55317,-0.13921 0.73116,0.08661z" fill="#000000" stroke="none" stroke-width="0.5"/><path d="M329.28466,189.3923c0.17799,0.22582 0.13921,0.55317 -0.08661,0.73116c-0.22582,0.17799 -0.55317,0.13921 -0.73116,-0.08661c-0.17799,-0.22582 -0.13921,-0.55317 0.08661,-0.73116c0.22582,-0.17799 0.55317,-0.13921 0.73116,0.08661z" fill="#000000" stroke="none" stroke-width="0.5"/><path d="M331.71617,192.3371c0.17799,0.22582 0.13921,0.55317 -0.08661,0.73116c-0.22582,0.17799 -0.55317,0.13921 -0.73116,-0.08661c-0.17799,-0.22582 -0.13921,-0.55317 0.08661,-0.73116c0.22582,-0.17799 0.55317,-0.13921 0.73116,0.08661z" fill="#000000" stroke="none" stroke-width="0.5"/><path d="M333.80056,194.56114c0.17799,0.22582 0.13921,0.55317 -0.08661,0.73116c-0.22582,0.17799 -0.55317,0.13921 -0.73116,-0.08661c-0.17799,-0.22582 -0.13921,-0.55317 0.08661,-0.73116c0.22582,-0.17799 0.55317,-0.13921 0.73116,0.08661z" fill="#000000" stroke="none" stroke-width="0.5"/></g></g></g></svg>