<svg version="1.1" xmlns="http://www.w3.org/2000/svg" xmlns:xlink="http://www.w3.org/1999/xlink" width="63.60699" height="62.92145" viewBox="0,0,63.60699,62.92145"><g transform="translate(-288.1965,-148.53928)"><g data-paper-data="{&quot;isPaintingLayer&quot;:true}" fill-rule="nonzero" stroke-linecap="butt" stroke-miterlimit="10" stroke-dasharray="" stroke-dashoffset="0" style="mix-blend-mode: normal"><path d="M319.99995,160.2442c2.48923,-5.66019 7.86158,-9.59422 14.10352,-9.59422c8.60532,0 15.58933,7.45485 15.58933,16.6403c0,18.09007 -18.31589,23.69951 -29.69285,42.05976c-12.03356,-18.47392 -29.69275,-23.37328 -29.69275,-42.05976c0,-9.18545 6.98401,-16.6403 15.58933,-16.6403c6.24199,0 11.61433,3.93404 14.10342,9.59422z" fill="#ff0000" stroke="#ff99e5" stroke-width="4.22139" stroke-linejoin="round"/><path d="M306.20033,185.28849c0.71151,-0.23717 0.94868,0.47434 0.94868,0.47434l0.25858,0.77748c1.09098,4.35429 3.06044,7.01767 6.01716,10.38973c0.82455,1.19215 2.01883,3.09606 3.43055,3.66115c1.92183,0.76927 4.21291,-0.61119 5.4499,-1.95476c3.55611,-3.86251 7.77968,-8.22957 9.7208,-13.20045c0.48212,-1.2158 0.84355,-2.41432 1.17945,-3.67623c0.19366,-0.72753 0.38894,-1.47992 0.34779,-2.23166c-0.04914,-0.89789 0.11542,-1.82009 -0.08669,-2.69632c-0.38662,-1.67619 -3.43869,-2.50804 -4.69108,-3.01385c-2.9142,-1.17699 -6.4065,-0.73067 -9.24544,-1.7699l-0.10417,0.27987l-1.04074,-0.38738c-0.29379,-0.1016 -0.50478,-0.38066 -0.50478,-0.70899c0,-0.35164 0.24199,-0.64675 0.56852,-0.7279l1.43151,-0.3901l0.00319,0.0117l0.04208,-0.02254c5.53681,-0.7885 9.1084,-4.73663 13.95109,-7.03527c0.06681,-0.03171 0.14069,-0.06599 0.22084,-0.10232c-1.13195,0.02342 -2.26668,0.03491 -3.41008,0.03491c-6.26628,0 -12.99818,-0.2268 -19.21944,-1.00597c-2.05871,-0.25784 -3.92591,-0.87163 -6.03056,-0.86903c0,0 -0.75,0 -0.75,-0.75c0,-0.75 0.75,-0.75 0.75,-0.75c2.16959,0.00245 4.09878,0.61571 6.21944,0.88097c6.16112,0.77067 12.82341,0.99403 19.03056,0.99403c2.98314,0 5.90522,-0.07841 8.875,-0.24388v-0.00612h1c0.41421,0 0.75,0.33579 0.75,0.75c0,0.41421 -0.33579,0.75 -0.75,0.75l-0.8592,0c-0.14073,0.0079 -0.28136,0.0156 -0.42189,0.02311c-1.61718,0.52844 -3.28335,0.94285 -4.78315,1.65948c-4.19756,2.00566 -7.45219,5.15656 -11.80514,6.56527c0.00523,0.0002 0.01045,0.00039 0.01565,0.00057c3.43344,0.11944 11.04298,1.36172 12.19966,5.41981c0.87237,3.06062 -0.37442,6.75228 -1.48772,9.56979c-2.05489,5.13196 -6.29196,9.68922 -10.01633,13.66907c-1.68909,1.80496 -4.56795,3.3357 -7.10454,2.32745c-1.70415,-0.67737 -3.05449,-2.68412 -4.05723,-4.13116c-3.07428,-3.49443 -5.14499,-6.36219 -6.27521,-10.8937l-0.24142,-0.72252c0,0 -0.23717,-0.71151 0.47434,-0.94868z" fill="#ffffff" stroke="none" stroke-width="0.5" stroke-linejoin="miter"/></g></g></svg>