<svg version="1.1" xmlns="http://www.w3.org/2000/svg" xmlns:xlink="http://www.w3.org/1999/xlink" width="59.25989" height="84.5" viewBox="0,0,59.25989,84.5"><g transform="translate(-289.63447,-157.5629)"><g data-paper-data="{&quot;isPaintingLayer&quot;:true}" fill-rule="nonzero" stroke="#8e8e8e" stroke-width="4.5" stroke-linejoin="miter" stroke-miterlimit="10" stroke-dasharray="" stroke-dashoffset="0" style="mix-blend-mode: normal"><g><path d="M340.59193,181.3129c0,11.87412 -9.29009,21.5 -20.75,21.5c-11.45991,0 -20.75,-9.62588 -20.75,-21.5c0,-11.87412 9.29009,-21.5 20.75,-21.5c11.45991,0 20.75,9.62588 20.75,21.5z" fill="#dedede" stroke-linecap="butt"/><path d="M331.09193,199.3129l14.5,36.5l-52.5,0.5l16,-36.5" fill="#dedede" stroke-linecap="round"/><path d="M310.09193,238.3129c0,0.55228 -2.01472,1 -4.5,1c-2.48528,0 -4.5,-0.44772 -4.5,-1c0,-0.55228 2.01472,-1 4.5,-1c2.48528,0 4.5,0.44772 4.5,1z" fill="#ffffff" stroke-linecap="butt"/><path d="M338.59193,238.5629c0,0.69036 -1.67893,1.25 -3.75,1.25c-2.07107,0 -3.75,-0.55964 -3.75,-1.25c0,-0.69036 1.67893,-1.25 3.75,-1.25c2.07107,0 3.75,0.55964 3.75,1.25z" fill="#ffffff" stroke-linecap="butt"/><path d="M340.88399,208.0629c0,2.07107 -1.24365,3.75 -2.77778,3.75c-1.53412,0 -2.77778,-1.67893 -2.77778,-3.75c0,-2.07107 1.24365,-3.75 2.77778,-3.75c1.53412,0 2.77778,1.67893 2.77778,3.75z" fill="#ffffff" stroke-linecap="butt"/><path d="M302.59193,206.3129c1.65685,0 3,1.567 3,3.5c0,1.933 -1.34315,3.5 -3,3.5c-1.65685,0 -3,-1.567 -3,-3.5c0,-1.933 1.34315,-3.5 3,-3.5z" fill="#ffffff" stroke-linecap="butt"/></g></g></g></svg>