<svg version="1.1" xmlns="http://www.w3.org/2000/svg" xmlns:xlink="http://www.w3.org/1999/xlink" width="60" height="91.5" viewBox="0,0,60,91.5"><g transform="translate(-288.31613,-157.40322)"><g data-paper-data="{&quot;isPaintingLayer&quot;:true}" fill="#dedede" fill-rule="nonzero" stroke="#8e8e8e" stroke-linecap="butt" stroke-linejoin="miter" stroke-miterlimit="10" stroke-dasharray="" stroke-dashoffset="0" style="mix-blend-mode: normal"><path d="M337.56613,217.40323c0,12.56448 -7.94695,22.75 -17.75,22.75c-9.80305,0 -17.75,-10.18552 -17.75,-22.75c0,-12.56448 7.94695,-22.75 17.75,-22.75c9.80305,0 17.75,10.18552 17.75,22.75z" stroke-width="4.5"/><path d="M298.56613,199.65323v-40h44v40z" stroke-width="4.5"/><path d="M346.06613,213.65323c0,3.03757 -2.91015,5.5 -6.5,5.5c-3.58985,0 -6.5,-2.46243 -6.5,-5.5c0,-3.03757 2.91015,-5.5 6.5,-5.5c3.58985,0 6.5,2.46243 6.5,5.5z" stroke-width="4.5"/><path d="M296.81613,208.15323c3.45178,0 6.25,2.23858 6.25,5c0,2.76142 -2.79822,5 -6.25,5c-3.45178,0 -6.25,-2.23858 -6.25,-5c0,-2.76142 2.79822,-5 6.25,-5z" stroke-width="4.5"/><path d="M320.15166,208.75641c-9.3416,0 -16.91447,-10.20863 -16.91447,-22.80159c0,-12.59298 7.57287,-22.80159 16.91447,-22.80159c9.3416,0 16.91447,10.20863 16.91447,22.80159c0,12.59298 -7.57287,22.80159 -16.91447,22.80159z" stroke-width="0"/><path d="M337.06613,241.90323c0,2.34721 -2.46243,4.25 -5.5,4.25c-3.03757,0 -5.5,-1.90279 -5.5,-4.25c0,-2.34721 2.46243,-4.25 5.5,-4.25c3.03757,0 5.5,1.90279 5.5,4.25z" stroke-width="4.5"/><path d="M307.56613,238.65323c3.31371,0 6,1.79086 6,4c0,2.20914 -2.68629,4 -6,4c-3.31371,0 -6,-1.79086 -6,-4c0,-2.20914 2.68629,-4 6,-4z" stroke-width="4.5"/></g></g></svg>