<svg version="1.1" xmlns="http://www.w3.org/2000/svg" xmlns:xlink="http://www.w3.org/1999/xlink" width="67.32953" height="66.8371" viewBox="0,0,67.32953,66.8371"><g transform="translate(-288.1965,-144.62364)"><g data-paper-data="{&quot;isPaintingLayer&quot;:true}" fill-rule="nonzero" stroke-linecap="butt" stroke-miterlimit="10" stroke-dasharray="" stroke-dashoffset="0" style="mix-blend-mode: normal"><path d="M319.99995,160.24421c2.48923,-5.66019 7.86158,-9.59422 14.10352,-9.59422c8.60532,0 15.58933,7.45485 15.58933,16.6403c0,18.09007 -18.31589,23.69951 -29.69285,42.05976c-12.03356,-18.47392 -29.69275,-23.37328 -29.69275,-42.05976c0,-9.18545 6.98401,-16.6403 15.58933,-16.6403c6.24199,0 11.61433,3.93404 14.10342,9.59422z" fill="#ff0000" stroke="#ff99e5" stroke-width="4.22139" stroke-linejoin="round"/><path d="M331.1479,191.42083c-0.67082,0.33541 -1.00623,-0.33541 -1.00623,-0.33541l-0.14354,-0.28997c-0.98237,-2.30727 -1.04983,-4.78958 -1.98406,-7.07757c-4.32747,3.2225 -9.15143,6.02424 -13.74116,8.32795c0,0 -0.67082,0.33541 -1.00623,-0.33541c-0.33541,-0.67082 0.33541,-1.00623 0.33541,-1.00623c1.85244,-0.92231 3.42325,-2.28898 5.19839,-3.34661c2.91375,-1.73601 5.74702,-3.33015 8.43041,-5.16096c-1.2539,-2.05801 -2.81662,-4.00468 -4.20177,-6.03148c-4.41471,3.21415 -8.9122,6.26497 -13.88119,8.75569c0,0 -0.67082,0.33541 -1.00623,-0.33541c-0.33541,-0.67082 0.33541,-1.00623 0.33541,-1.00623c4.92139,-2.45414 9.36697,-5.48002 13.73103,-8.66541c-0.97822,-1.56471 -1.79791,-3.19767 -2.24822,-4.98187c0,0 -0.1819,-0.72761 0.5457,-0.90951c0.7276,-0.1819 0.9095,0.5457 0.9095,0.5457c0.39287,1.58815 1.1111,3.06051 1.97987,4.47449c2.20063,-1.62346 4.38958,-3.27812 6.61779,-4.91072c0.42771,-0.27489 0.96962,-0.59685 1.56701,-0.95631c-1.29052,-1.60566 -2.46002,-3.30407 -3.10377,-5.18839c0,0 -0.23717,-0.71151 0.47434,-0.94868c0.71151,-0.23717 0.94868,0.47434 0.94868,0.47434c0.5688,1.76265 1.69819,3.37223 2.94299,4.88985c2.05802,-1.293 4.27879,-2.90158 4.759,-4.51485l-0.03849,0.11217c0,0 0,-0.75 0.75,-0.75c0.75,0 0.75,0.75 0.75,0.75l-0.03849,0.36217c-0.71067,1.99264 -3.01853,3.74014 -5.22755,5.1696c0.72203,0.83561 1.44516,1.64665 2.08848,2.44423c0.18946,0.23488 0.37729,0.47266 0.56351,0.71303c0.58618,-1.32663 1.07659,-2.71979 1.51792,-4.27007l0.63573,-0.58978c0,0 0.67082,-0.33541 1.00623,0.33541c0.28197,0.56394 -0.1472,0.89084 -0.29111,0.98069c-0.52349,1.77364 -1.12246,3.37031 -1.85317,4.90085c1.76909,2.44379 3.38294,5.08693 4.84376,7.65728l0.46535,0.57807c0,0 0.46852,0.58565 -0.11713,1.05417c-0.58565,0.46852 -1.05417,-0.11713 -1.05417,-0.11713l-0.53465,-0.67193c-1.34265,-2.33818 -2.79173,-4.74122 -4.3751,-6.99654c-0.70977,1.29077 -1.53106,2.55975 -2.49981,3.87773c-1.51716,1.5214 -3.18711,2.97603 -4.95625,4.35823c1.04455,2.40691 1.09302,4.99172 2.14081,7.41855l0.10646,0.21003c0,0 0.33541,0.67082 -0.33541,1.00623zM333.05402,177.45091c1.06637,-1.45584 1.93457,-2.83018 2.66603,-4.24222c-0.32852,-0.43855 -0.66267,-0.86943 -1.00266,-1.29094c-0.68736,-0.85218 -1.43926,-1.70998 -2.18392,-2.58992c-0.60595,0.37483 -1.17648,0.72219 -1.67123,1.04033c-2.23762,1.64244 -4.43804,3.30294 -6.65059,4.93116c1.38962,2.0391 2.99228,3.98878 4.24904,6.03253c1.59505,-1.15761 3.13128,-2.42329 4.59332,-3.88093z" fill="#c76767" stroke="none" stroke-width="0.5" stroke-linejoin="miter"/><g stroke-linejoin="miter"><text transform="translate(329.15079,176.60352) rotate(141.75552) scale(0.40547,0.40547)" font-size="40" xml:space="preserve" fill="#000000" fill-rule="nonzero" stroke="none" stroke-width="1" stroke-linecap="butt" stroke-linejoin="miter" stroke-miterlimit="10" stroke-dasharray="" stroke-dashoffset="0" font-family="Pixel" font-weight="normal" text-anchor="start" style="mix-blend-mode: normal"><tspan x="0" dy="0">x2</tspan></text><path d="M314.43317,200.09724c-1.36639,-1.7336 -4.22024,-4.90374 -2.64725,-8.16512c2.05741,-4.26576 9.46204,-8.95131 15.16812,-13.44873c7.08585,-5.58493 14.45444,-12.1441 19.32082,-12.17571c2.04852,-0.01331 3.68591,3.86575 4.62015,5.05106c0.8753,1.11053 3.98101,3.72424 3.59856,5.5507c-0.99546,4.75397 -8.84542,10.32991 -16.11943,16.06314c-6.12588,4.8283 -13.4787,10.74223 -18.23568,11.50626c-3.06172,0.49176 -4.47038,-2.81483 -5.70528,-4.38161z" fill="#c58566" stroke="#000000" stroke-width="2"/><path d="M335.87401,177.51902c0,0 3.08422,5.05937 4.14881,6.41006c0.48771,0.61878 0.40551,0.84199 0.40551,0.84199c0,0 0.09257,0.56445 -0.3322,0.8904c-1.29572,0.99425 -7.5653,5.12786 -9.85487,7.17291c-0.55698,0.49749 -0.90787,0.29431 -0.90787,0.29431c0,0 -0.03613,-0.2096 -0.61061,-0.93847c-1.08567,-1.37744 -5.10884,-5.00804 -5.10884,-5.00804z" fill="#c58566" stroke="#000000" stroke-width="2"/><path d="M350.82835,176.18678c0.20793,0.26381 0.16263,0.64622 -0.10118,0.85415c-0.26381,0.20793 -0.64622,0.16263 -0.85415,-0.10118c-0.20793,-0.26381 -0.16263,-0.64622 0.10118,-0.85415c0.26381,-0.20793 0.64622,-0.16263 0.85415,0.10118z" fill="#000000" stroke="none" stroke-width="0.5"/><path d="M349.76634,174.18435c0.20793,0.26381 0.16263,0.64622 -0.10118,0.85415c-0.26381,0.20793 -0.64622,0.16263 -0.85415,-0.10118c-0.20793,-0.26381 -0.16263,-0.64622 0.10118,-0.85415c0.26381,-0.20793 0.64622,-0.16263 0.85415,0.10118z" fill="#000000" stroke="none" stroke-width="0.5"/><path d="M348.35687,172.06858c0.20793,0.26381 0.16263,0.64622 -0.10118,0.85415c-0.26381,0.20793 -0.64622,0.16263 -0.85415,-0.10118c-0.20793,-0.26381 -0.16263,-0.64622 0.10118,-0.85415c0.26381,-0.20793 0.64622,-0.16263 0.85415,0.10118z" fill="#000000" stroke="none" stroke-width="0.5"/><path d="M346.78817,170.0783c0.20793,0.26381 0.16263,0.64622 -0.10118,0.85415c-0.26381,0.20793 -0.64622,0.16263 -0.85415,-0.10118c-0.20793,-0.26381 -0.16263,-0.64622 0.10118,-0.85415c0.26381,-0.20793 0.64622,-0.16263 0.85415,0.10118z" fill="#000000" stroke="none" stroke-width="0.5"/><path d="M345.48067,171.36698c0.20793,0.26381 0.16263,0.64622 -0.10118,0.85415c-0.26381,0.20793 -0.64622,0.16263 -0.85415,-0.10118c-0.20793,-0.26381 -0.16263,-0.64622 0.10118,-0.85415c0.26381,-0.20793 0.64622,-0.16263 0.85415,0.10118z" fill="#000000" stroke="none" stroke-width="0.5"/><path d="M346.64385,172.51526c0.20793,0.26381 0.16263,0.64622 -0.10118,0.85415c-0.26381,0.20793 -0.64622,0.16263 -0.85415,-0.10118c-0.20793,-0.26381 -0.16263,-0.64622 0.10118,-0.85415c0.26381,-0.20793 0.64622,-0.16263 0.85415,0.10118z" fill="#000000" stroke="none" stroke-width="0.5"/><path d="M347.4333,174.99066c0.20793,0.26381 0.16263,0.64622 -0.10118,0.85415c-0.26381,0.20793 -0.64622,0.16263 -0.85415,-0.10118c-0.20793,-0.26381 -0.16263,-0.64622 0.10118,-0.85415c0.26381,-0.20793 0.64622,-0.16263 0.85415,0.10118z" fill="#000000" stroke="none" stroke-width="0.5"/><path d="M348.70042,177.08957c0.20793,0.26381 0.16263,0.64622 -0.10118,0.85415c-0.26381,0.20793 -0.64622,0.16263 -0.85415,-0.10118c-0.20793,-0.26381 -0.16263,-0.64622 0.10118,-0.85415c0.26381,-0.20793 0.64622,-0.16263 0.85415,0.10118z" fill="#000000" stroke="none" stroke-width="0.5"/><path d="M347.12506,178.20216c0.20793,0.26381 0.16263,0.64622 -0.10118,0.85415c-0.26381,0.20793 -0.64622,0.16263 -0.85415,-0.10118c-0.20793,-0.26381 -0.16263,-0.64622 0.10118,-0.85415c0.26381,-0.20793 0.64622,-0.16263 0.85415,0.10118z" fill="#000000" stroke="none" stroke-width="0.5"/><path d="M346.256,175.78952c0.20793,0.26381 0.16263,0.64622 -0.10118,0.85415c-0.26381,0.20793 -0.64622,0.16263 -0.85415,-0.10118c-0.20793,-0.26381 -0.16263,-0.64622 0.10118,-0.85415c0.26381,-0.20793 0.64622,-0.16263 0.85415,0.10118z" fill="#000000" stroke="none" stroke-width="0.5"/><path d="M344.71633,174.16357c0.20793,0.26381 0.16263,0.64622 -0.10118,0.85415c-0.26381,0.20793 -0.64622,0.16263 -0.85415,-0.10118c-0.20793,-0.26381 -0.16263,-0.64622 0.10118,-0.85415c0.26381,-0.20793 0.64622,-0.16263 0.85415,0.10118z" fill="#000000" stroke="none" stroke-width="0.5"/><path d="M342.95939,171.93446c0.20793,0.26381 0.16263,0.64622 -0.10118,0.85415c-0.26381,0.20793 -0.64622,0.16263 -0.85415,-0.10118c-0.20793,-0.26381 -0.16263,-0.64622 0.10118,-0.85415c0.26381,-0.20793 0.64622,-0.16263 0.85415,0.10118z" fill="#000000" stroke="none" stroke-width="0.5"/><path d="M341.91974,173.39923c0.20793,0.26381 0.16263,0.64622 -0.10118,0.85415c-0.26381,0.20793 -0.64622,0.16263 -0.85415,-0.10118c-0.20793,-0.26381 -0.16263,-0.64622 0.10118,-0.85415c0.26381,-0.20793 0.64622,-0.16263 0.85415,0.10118z" fill="#000000" stroke="none" stroke-width="0.5"/><path d="M343.80218,175.78756c0.20793,0.26381 0.16263,0.64622 -0.10118,0.85415c-0.26381,0.20793 -0.64622,0.16263 -0.85415,-0.10118c-0.20793,-0.26381 -0.16263,-0.64622 0.10118,-0.85415c0.26381,-0.20793 0.64622,-0.16263 0.85415,0.10118z" fill="#000000" stroke="none" stroke-width="0.5"/><path d="M345.45794,178.87082c0.20793,0.26381 0.16263,0.64622 -0.10118,0.85415c-0.26381,0.20793 -0.64622,0.16263 -0.85415,-0.10118c-0.12352,-0.15672 -0.15767,-0.35529 -0.10975,-0.53427c-0.06377,-0.03732 -0.12176,-0.08696 -0.17027,-0.1485c-0.20793,-0.26381 -0.16263,-0.64622 0.10118,-0.85415c0.26381,-0.20793 0.64622,-0.16263 0.85415,0.10118c0.12352,0.15672 0.15767,0.35529 0.10975,0.53427c0.06377,0.03732 0.12176,0.08696 0.17027,0.1485z" fill="#000000" stroke="none" stroke-width="0.5"/><path d="M326.61445,194.75542c0.20793,0.26381 0.16263,0.64622 -0.10118,0.85415c-0.26381,0.20793 -0.64622,0.16263 -0.85415,-0.10118c-0.20793,-0.26381 -0.16263,-0.64622 0.10118,-0.85415c0.26381,-0.20793 0.64622,-0.16263 0.85415,0.10118z" fill="#000000" stroke="none" stroke-width="0.5"/><path d="M324.91281,191.45019c0.20793,0.26381 0.16263,0.64622 -0.10118,0.85415c-0.26381,0.20793 -0.64622,0.16263 -0.85415,-0.10118c-0.20793,-0.26381 -0.16263,-0.64622 0.10118,-0.85415c0.26381,-0.20793 0.64622,-0.16263 0.85415,0.10118z" fill="#000000" stroke="none" stroke-width="0.5"/><path d="M322.71193,189.31285c0.20793,0.26381 0.16263,0.64622 -0.10118,0.85415c-0.26381,0.20793 -0.64622,0.16263 -0.85415,-0.10118c-0.20793,-0.26381 -0.16263,-0.64622 0.10118,-0.85415c0.26381,-0.20793 0.64622,-0.16263 0.85415,0.10118z" fill="#000000" stroke="none" stroke-width="0.5"/><path d="M321.23971,187.11747c0.20793,0.26381 0.16263,0.64622 -0.10118,0.85415c-0.26381,0.20793 -0.64622,0.16263 -0.85415,-0.10118c-0.20793,-0.26381 -0.16263,-0.64622 0.10118,-0.85415c0.26381,-0.20793 0.64622,-0.16263 0.85415,0.10118z" fill="#000000" stroke="none" stroke-width="0.5"/><path d="M324.89673,195.85116c0.20793,0.26381 0.16263,0.64622 -0.10118,0.85415c-0.26381,0.20793 -0.64622,0.16263 -0.85415,-0.10118c-0.20793,-0.26381 -0.16263,-0.64622 0.10118,-0.85415c0.26381,-0.20793 0.64622,-0.16263 0.85415,0.10118z" fill="#000000" stroke="none" stroke-width="0.5"/><path d="M322.17701,193.21929c0.20793,0.26381 0.16263,0.64622 -0.10118,0.85415c-0.26381,0.20793 -0.64622,0.16263 -0.85415,-0.10118c-0.20793,-0.26381 -0.16263,-0.64622 0.10118,-0.85415c0.26381,-0.20793 0.64622,-0.16263 0.85415,0.10118z" fill="#000000" stroke="none" stroke-width="0.5"/><path d="M320.20281,190.38702c0.20793,0.26381 0.16263,0.64622 -0.10118,0.85415c-0.26381,0.20793 -0.64622,0.16263 -0.85415,-0.10118c-0.20793,-0.26381 -0.16263,-0.64622 0.10118,-0.85415c0.26381,-0.20793 0.64622,-0.16263 0.85415,0.10118z" fill="#000000" stroke="none" stroke-width="0.5"/><path d="M318.47489,188.52224c0.20793,0.26381 0.16263,0.64622 -0.10118,0.85415c-0.26381,0.20793 -0.64622,0.16263 -0.85415,-0.10118c-0.20793,-0.26381 -0.16263,-0.64622 0.10118,-0.85415c0.26381,-0.20793 0.64622,-0.16263 0.85415,0.10118z" fill="#000000" stroke="none" stroke-width="0.5"/><path d="M317.01562,191.09215c-0.47767,0.37649 -0.85415,-0.10118 -0.85415,-0.10118c-0.1255,-0.15922 -0.31374,-0.39805 -0.43923,-0.55728c0,0 -0.37649,-0.47767 0.10118,-0.85415c0.47767,-0.37649 0.85415,0.10118 0.85415,0.10118c0.1255,0.15922 0.25099,0.31844 0.37649,0.47767l0.06275,0.07961c0,0 0.37649,0.47767 -0.10118,0.85415z" fill="#000000" stroke="none" stroke-width="0.5"/><path d="M318.32587,191.60825c0.20793,0.26381 0.16263,0.64622 -0.10118,0.85415c-0.26381,0.20793 -0.64622,0.16263 -0.85415,-0.10118c-0.20793,-0.26381 -0.16263,-0.64622 0.10118,-0.85415c0.26381,-0.20793 0.64622,-0.16263 0.85415,0.10118z" fill="#000000" stroke="none" stroke-width="0.5"/><path d="M319.83182,193.51891c0.20793,0.26381 0.16263,0.64622 -0.10118,0.85415c-0.26381,0.20793 -0.64622,0.16263 -0.85415,-0.10118c-0.20793,-0.26381 -0.16263,-0.64622 0.10118,-0.85415c0.26381,-0.20793 0.64622,-0.16263 0.85415,0.10118z" fill="#000000" stroke="none" stroke-width="0.5"/><path d="M320.94441,195.09427c0.20793,0.26381 0.16263,0.64622 -0.10118,0.85415c-0.26381,0.20793 -0.64622,0.16263 -0.85415,-0.10118c-0.20793,-0.26381 -0.16263,-0.64622 0.10118,-0.85415c0.26381,-0.20793 0.64622,-0.16263 0.85415,0.10118z" fill="#000000" stroke="none" stroke-width="0.5"/><path d="M315.79243,191.66904c0.20793,0.26381 0.16263,0.64622 -0.10118,0.85415c-0.26381,0.20793 -0.64622,0.16263 -0.85415,-0.10118c-0.20793,-0.26381 -0.16263,-0.64622 0.10118,-0.85415c0.26381,-0.20793 0.64622,-0.16263 0.85415,0.10118z" fill="#000000" stroke="none" stroke-width="0.5"/><path d="M318.36509,194.93309c0.20793,0.26381 0.16263,0.64622 -0.10118,0.85415c-0.26381,0.20793 -0.64622,0.16263 -0.85415,-0.10118c-0.20793,-0.26381 -0.16263,-0.64622 0.10118,-0.85415c0.26381,-0.20793 0.64622,-0.16263 0.85415,0.10118z" fill="#000000" stroke="none" stroke-width="0.5"/><path d="M319.72398,197.47594c0.20793,0.26381 0.16263,0.64622 -0.10118,0.85415c-0.26381,0.20793 -0.64622,0.16263 -0.85415,-0.10118c-0.20793,-0.26381 -0.16263,-0.64622 0.10118,-0.85415c0.26381,-0.20793 0.64622,-0.16263 0.85415,0.10118z" fill="#000000" stroke="none" stroke-width="0.5"/><path d="M320.61931,198.44813c0.20793,0.26381 0.16263,0.64622 -0.10118,0.85415c-0.26381,0.20793 -0.64622,0.16263 -0.85415,-0.10118c-0.20793,-0.26381 -0.16263,-0.64622 0.10118,-0.85415c0.26381,-0.20793 0.64622,-0.16263 0.85415,0.10118z" fill="#000000" stroke="none" stroke-width="0.5"/><path d="M314.08688,193.27146c0.20793,0.26381 0.16263,0.64622 -0.10118,0.85415c-0.26381,0.20793 -0.64622,0.16263 -0.85415,-0.10118c-0.20793,-0.26381 -0.16263,-0.64622 0.10118,-0.85415c0.26381,-0.20793 0.64622,-0.16263 0.85415,0.10118z" fill="#000000" stroke="none" stroke-width="0.5"/><path d="M316.92739,196.7116c0.20793,0.26381 0.16263,0.64622 -0.10118,0.85415c-0.26381,0.20793 -0.64622,0.16263 -0.85415,-0.10118c-0.20793,-0.26381 -0.16263,-0.64622 0.10118,-0.85415c0.26381,-0.20793 0.64622,-0.16263 0.85415,0.10118z" fill="#000000" stroke="none" stroke-width="0.5"/><path d="M319.3624,199.30974c0.20793,0.26381 0.16263,0.64622 -0.10118,0.85415c-0.26381,0.20793 -0.64622,0.16263 -0.85415,-0.10118c-0.20793,-0.26381 -0.16263,-0.64622 0.10118,-0.85415c0.26381,-0.20793 0.64622,-0.16263 0.85415,0.10118z" fill="#000000" stroke="none" stroke-width="0.5"/></g><path d="M336.88,201.59987c-1.82449,0.04864 -3.66156,0.07332 -5.48399,-0.02207c-2.49773,-0.13424 -4.99445,-0.36556 -7.49456,-0.60007c-0.22129,0.08722 -0.45726,0.16738 -0.70882,0.24011c-0.89896,0.09048 -1.99182,0.83642 -2.69689,0.27144c-0.27255,-0.2184 -0.41905,-0.52194 -0.49722,-0.86674c-2.02628,-0.17188 -4.05627,-0.3139 -6.09228,-0.37639c-3.58783,-0.11012 -7.15317,0.17774 -10.47064,-1.05004l-0.03579,0.16103l-1.11058,-0.2468c-0.34319,-0.06882 -0.60172,-0.37189 -0.60172,-0.73534c0,-0.35693 0.24933,-0.65562 0.58332,-0.73141l0.98478,-0.24619l0.00823,0.03291l0.08204,-0.04968c0.45608,-0.00305 0.91234,-0.0068 1.36873,-0.01049c0.12445,-0.38043 0.56021,-0.47727 0.56021,-0.47727c4.65212,-1.0327 9.09736,-0.94097 13.56081,-0.50857c0.06173,-0.00929 0.10189,-0.00929 0.10189,-0.00929h0.25c0.22459,0.00093 0.44936,0.00748 0.67429,0.01915c0.1148,-5.4632 1.66726,-11.09183 1.00837,-16.66716c-0.51033,-4.31824 -1.57973,-8.20663 -2.10302,-12.37803c-2.86821,3.22466 -9.71906,5.35054 -12.44009,5.93365c-1.19741,0.2566 -6.22291,2.0825 -6.02447,-1.28597c0.02647,-0.44931 0.21942,-0.83519 0.50819,-1.17879c-0.58993,0.3064 -1.18489,0.609 -1.78405,0.90906c0,0 -1.2829,0.64145 -1.92434,-0.64145c-0.64145,-1.2829 0.64145,-1.92434 0.64145,-1.92434c6.13519,-3.06237 13.62391,-6.84204 17.35035,-12.85817c1.80214,-2.90946 2.72057,-7.41464 5.05396,-9.85338c0.69528,-0.72667 1.45032,-2.04341 2.42493,-1.79525c2.53342,0.64509 1.86786,7.15343 1.86902,8.80678c0.00001,11.90698 2.12758,23.85051 2.15148,35.62908c0.00586,2.88741 0.75588,5.9069 0.32592,8.26878c1.34507,0.16479 2.70341,0.31843 4.08078,0.44088c2.65215,0.23769 5.12935,0.56884 7.80736,0.58485l0.09913,0.08253l0.01791,-0.05372l0.73359,0.24453c0.30647,0.09425 0.52924,0.3796 0.52924,0.71698c0,0.41421 -0.33579,0.75 -0.75,0.75c-0.02059,0 -0.04099,-0.00083 -0.06116,-0.00246l-1.14215,-0.08158c0.05012,0.10059 0.07831,0.21402 0.07831,0.33404c0,0.28397 -0.15782,0.53108 -0.39054,0.65841l-0.86236,0.49278l-0.03888,-0.06803zM323.23912,196.89177c0.45042,0.05721 0.90177,0.11526 1.35427,0.17337c0.0024,-2.77955 -0.53209,-6.92425 -0.85989,-9.49182c-0.0025,-0.01957 -0.00499,-0.03913 -0.00749,-0.0587c0.01405,2.28479 0.15414,4.59861 -0.26338,6.85287c-0.04848,0.26176 -0.34007,1.37538 -0.62641,2.43672c0.1343,0.02816 0.2686,0.05738 0.4029,0.08756zM323.257,198.39414c-0.27622,-0.0357 -0.5521,-0.0711 -0.82769,-0.10601c-0.01793,0.06397 -0.03492,0.12427 -0.05082,0.18039c0.33255,-0.08093 0.80265,-0.01764 1.22178,0.00697c-0.11442,-0.02779 -0.22885,-0.05492 -0.34327,-0.08134zM314.4822,197.58515c0.19359,0.01576 0.38711,0.03253 0.58057,0.05039c1.55662,0.38577 3.17716,0.61809 4.82803,0.75426c-0.00728,-0.13544 -0.01338,-0.27101 -0.01836,-0.40668c-1.7976,-0.19695 -3.5896,-0.34752 -5.39024,-0.39797zM321.45137,152.07041c-0.04769,-0.53144 -0.09617,-1.15329 -0.11819,-1.76498c-0.44962,1.01612 -1.0123,2.15293 -1.51987,3.13754l0.98497,-0.98597c0,0 0.26211,-0.26211 0.65309,-0.38659zM312.67668,162.94638c-2.02393,1.84718 -4.25345,3.45429 -6.62269,4.92067c1.08682,-0.37061 2.17343,-0.73198 2.61131,-0.95989c1.69338,-0.88135 2.9026,-2.40803 4.01138,-3.96078zM322.31479,173.53059c-0.44014,-5.91389 -0.68301,-11.8394 -0.73204,-17.80252l-0.15218,0.15202c-1.81637,2.1191 -3.13828,4.01665 -4.67565,6.32651c-1.97362,2.44389 -3.67062,5.55903 -6.60447,7.15483c-0.20056,0.10909 -0.93723,0.36931 -1.86028,0.66514c0.52427,-0.04876 1.00623,-0.11714 1.40248,-0.24098c3.54916,-1.10916 6.04402,-3.81275 8.19512,-6.7095l0.62922,-2.09738c0.16698,-0.60708 0.72296,-1.05304 1.38309,-1.05304c0.79215,0 1.43432,0.64217 1.43432,1.43432v1.43432c0,3.67563 0.46236,7.21326 0.98039,10.73629z" fill="#ffffff" stroke="none" stroke-width="0.5" stroke-linejoin="miter"/></g></g></svg>